<svg version="1.1" viewBox="0 0 32 32"
    xmlns="http://www.w3.org/2000/svg"
    xmlns:xlink="http://www.w3.org/1999/xlink">
    <title>billboard</title>
    <path d="M30.4 28.8c-0.092 0-0.184 0.008-0.274 0.024-0.367-0.663-1.069-1.091-1.859-1.091s-1.492 0.428-1.859 1.091c-0.090-0.016-0.182-0.024-0.274-0.024-0.188 0-0.366 0.038-0.533 0.098v-5.965c0-0.294-0.238-0.533-0.533-0.533s-0.533 0.239-0.533 0.533v8h-1.067v-8c0-0.294-0.238-0.533-0.533-0.533s-0.533 0.239-0.533 0.533v8h-12.8v-8c0-0.294-0.238-0.533-0.533-0.533s-0.533 0.239-0.533 0.533v8h-1.067v-2.133c0-0.294-0.238-0.533-0.533-0.533s-0.533 0.239-0.533 0.533v2.133h-2.133v-3.237c1.882-0.237 3.2-1.716 3.2-3.697 0-3.147-1.603-8-3.733-8s-3.733 4.853-3.733 8c0 1.911 1.369 3.441 3.2 3.693v3.241h-2.667c-0.295 0-0.533 0.239-0.533 0.533s0.238 0.533 0.533 0.533h29.867c0.882 0 1.6-0.718 1.6-1.6s-0.718-1.6-1.6-1.6zM1.067 24c0-3.214 1.613-6.933 2.667-6.933s2.667 3.719 2.667 6.933c0 1.57-1.097 2.667-2.667 2.667-1.521 0-2.667-1.146-2.667-2.667zM30.4 30.933h-4.267c-0.294 0-0.533-0.239-0.533-0.533s0.239-0.533 0.533-0.533c0.102 0 0.199 0.029 0.289 0.087 0.146 0.094 0.329 0.111 0.49 0.046s0.279-0.205 0.319-0.374c0.113-0.486 0.538-0.826 1.035-0.826s0.923 0.34 1.035 0.826c0.040 0.169 0.158 0.309 0.319 0.374s0.343 0.048 0.49-0.046c0.348-0.224 0.822 0.050 0.822 0.446 0 0.294-0.239 0.533-0.533 0.533z"></path>
    <path d="M3.199 21.333c0.295 0 0.533-0.239 0.533-0.533h0.001c0.295 0 0.533-0.239 0.533-0.533s-0.238-0.533-0.533-0.533c-0.588 0-1.067 0.478-1.067 1.067 0 0.294 0.238 0.533 0.533 0.533z"></path>
    <path d="M27.483 8.791c-0.625-0.866-1.46-1.324-2.416-1.324-1.84 0-2.667 1.247-2.667 2.133 0 2.321 1.337 2.667 2.133 2.667 0.733 0 1.373-0.619 1.444-0.69 0.208-0.207 0.208-0.543 0-0.752-0.206-0.208-0.543-0.21-0.753-0.004-0.155 0.152-0.482 0.379-0.691 0.379-0.758 0-1.067-0.463-1.067-1.6 0-0.225 0.271-1.067 1.6-1.067 0.608 0 1.13 0.297 1.551 0.882 0.902 1.252 1.175 3.652 0.61 5.35-0.631 1.891 0.609 3.159 0.662 3.212 0.104 0.104 0.241 0.156 0.377 0.156s0.273-0.052 0.377-0.156c0.209-0.209 0.209-0.546 0-0.754-0.009-0.009-0.829-0.849-0.405-2.121 0.673-2.018 0.341-4.79-0.756-6.311z"></path>
    <path d="M4.267 22.4c-0.295 0-0.533 0.238-0.533 0.533s0.238 0.533 0.533 0.533v0.001c0 0.294 0.238 0.533 0.533 0.533s0.533-0.239 0.533-0.533c0-0.588-0.478-1.067-1.067-1.067z"></path>
    <path d="M3.2 24.001v-0.001c0-0.294-0.238-0.533-0.533-0.533s-0.533 0.239-0.533 0.533c0 0.588 0.478 1.067 1.067 1.067 0.295 0 0.533-0.238 0.533-0.533s-0.238-0.533-0.533-0.533z"></path>
    <path d="M13.333 6.4h-7.467c-0.295 0-0.533 0.239-0.533 0.533s0.238 0.533 0.533 0.533h7.467c0.295 0 0.533-0.239 0.533-0.533s-0.238-0.533-0.533-0.533z"></path>
    <path d="M5.867 11.733h4.267c0.295 0 0.533-0.239 0.533-0.533s-0.238-0.533-0.533-0.533h-4.267c-0.295 0-0.533 0.239-0.533 0.533s0.238 0.533 0.533 0.533z"></path>
    <path d="M5.867 9.6h5.333c0.295 0 0.533-0.239 0.533-0.533s-0.238-0.533-0.533-0.533h-5.333c-0.295 0-0.533 0.239-0.533 0.533s0.238 0.533 0.533 0.533z"></path>
    <path d="M19.322 15.939c-0.275 0.22-0.558 0.447-0.93 0.67-2.47 1.482-9.178 0.473-9.244 0.463-0.29-0.045-0.563 0.155-0.608 0.446s0.155 0.563 0.446 0.608c0.162 0.025 2.352 0.355 4.747 0.355 1.916 0 3.964-0.211 5.209-0.958 0.433-0.26 0.759-0.522 1.047-0.753 0.6-0.481 0.963-0.771 1.878-0.771 1.578 0 3.512-0.498 4.211-1.895 0.132-0.264 0.025-0.583-0.239-0.716-0.263-0.131-0.583-0.025-0.716 0.239-0.39 0.781-1.699 1.305-3.256 1.305-1.29 0-1.9 0.489-2.545 1.006z"></path>
    <path d="M29.333 0h-26.667c-1.47 0-2.667 1.196-2.667 2.667v13.867c0 0.294 0.238 0.533 0.533 0.533s0.533-0.239 0.533-0.533v-13.867c0-0.882 0.718-1.6 1.6-1.6h4.8v1.067h-1.6c-0.295 0-0.533 0.239-0.533 0.533s0.238 0.533 0.533 0.533h4.267c0.295 0 0.533-0.239 0.533-0.533s-0.238-0.533-0.533-0.533h-1.6v-1.067h14.933v1.067h-1.6c-0.295 0-0.533 0.239-0.533 0.533s0.238 0.533 0.533 0.533h4.267c0.295 0 0.533-0.239 0.533-0.533s-0.238-0.533-0.533-0.533h-1.6v-1.067h4.8c0.882 0 1.6 0.718 1.6 1.6v16c0 0.882-0.718 1.6-1.6 1.6h-20.8c-0.295 0-0.533 0.239-0.533 0.533s0.238 0.533 0.533 0.533h20.8c1.47 0 2.667-1.196 2.667-2.667v-16c0-1.47-1.196-2.667-2.667-2.667z"></path>
    <path d="M15.467 8.533h-2.133c-0.295 0-0.533 0.239-0.533 0.533s0.238 0.533 0.533 0.533h2.133c0.295 0 0.533-0.239 0.533-0.533s-0.238-0.533-0.533-0.533z"></path>
    <path d="M21.095 10.189c-0.887 0.444-0.989 1.199-1.057 1.7-0.032 0.238-0.060 0.445-0.149 0.534-0.365 0.366-1.308 0.32-2.654-0.129-1.723-0.572-7.306 2.145-8.407 2.695-0.263 0.132-0.371 0.452-0.239 0.716 0.094 0.187 0.282 0.295 0.478 0.295 0.080 0 0.162-0.018 0.238-0.056 2.575-1.288 6.635-2.959 7.593-2.638 1.826 0.609 3.050 0.566 3.746-0.129 0.343-0.343 0.404-0.788 0.452-1.146 0.064-0.47 0.11-0.705 0.476-0.887 0.263-0.132 0.371-0.452 0.239-0.716-0.133-0.264-0.452-0.371-0.716-0.239z"></path>
</svg>