<svg version="1.1" viewBox="0 0 29 32"
    xmlns="http://www.w3.org/2000/svg"
    xmlns:xlink="http://www.w3.org/1999/xlink">
    <title>bulb</title>
    <path d="M21.096 8.005c-1.724-1.748-4.025-2.729-6.477-2.762-2.511-0.036-4.88 0.916-6.654 2.667-1.745 1.722-2.724 4.031-2.755 6.5-0.023 1.81 0.475 3.571 1.439 5.091 0.883 1.392 2.113 2.52 3.569 3.276v1.24c0 0.543 0.348 1.004 0.832 1.177v3.517c0 0.51 0.351 0.939 0.824 1.061 0.204 1.262 1.3 2.229 2.618 2.229s2.414-0.967 2.618-2.229c0.473-0.122 0.824-0.55 0.824-1.061v-3.517c0.484-0.172 0.832-0.634 0.832-1.177v-1.24c1.439-0.747 2.658-1.859 3.539-3.229 0.962-1.496 1.47-3.231 1.47-5.018-0-2.458-0.951-4.776-2.677-6.525zM14.49 31.035c-0.771 0-1.423-0.52-1.624-1.228h3.248c-0.201 0.708-0.853 1.228-1.624 1.228zM16.836 28.842l-4.704-0.001c-0.066-0.007-0.118-0.062-0.118-0.13v-0.404h4.954v0.404h0c0 0.073-0.059 0.132-0.132 0.132zM16.967 27.341h-4.954v-0.539h4.954v0.539zM16.967 25.837h-4.954v-0.57h4.954v0.57zM16.31 24.302h-3.639v-4.032l0.669 0.688 1.151-1.184 1.151 1.184 0.669-0.688v4.032h0zM18.073 22.043l-0.274 0.131v1.842c0 0.157-0.128 0.285-0.285 0.285h-0.24v-6.408l-1.633 1.681-1.151-1.184-1.151 1.184-1.633-1.681v6.408h-0.24c-0.157 0-0.285-0.128-0.285-0.285v-1.842l-0.274-0.131c-2.917-1.395-4.775-4.387-4.734-7.621 0.058-4.607 3.711-8.215 8.315-8.215 0.039 0 0.078 0 0.117 0.001 4.523 0.061 8.202 3.795 8.202 8.322 0 3.188-1.859 6.137-4.735 7.513z"></path>
    <path d="M20.589 15.288c-0.124 1.306-1.116 2.616-2.527 3.337l0.439 0.859c1.697-0.867 2.894-2.479 3.048-4.105l-0.96-0.091z"></path>
    <path d="M19.627 9.32c-1.281-1.298-2.989-2.026-4.81-2.051l-0.013 0.965c3.224 0.044 5.847 2.705 5.847 5.932h0.964c0-1.826-0.706-3.547-1.988-4.846z"></path>
    <path d="M14.008 0h0.964v3.488h-0.964v-3.488z"></path>
    <path d="M3.315 4.831l0.682-0.682 2.466 2.466-0.682 0.682-2.466-2.466z"></path>
    <path d="M22.518 6.614l2.464-2.464 0.682 0.682-2.464 2.464-0.682-0.682z"></path>
    <path d="M3.315 25.83l2.464-2.464 0.682 0.682-2.464 2.464-0.682-0.682z"></path>
    <path d="M22.517 24.047l0.682-0.682 2.466 2.466-0.682 0.682-2.466-2.466z"></path>
    <path d="M25.472 14.849h3.485v0.965h-3.485v-0.965z"></path>
    <path d="M0.024 14.849h3.485v0.965h-3.485v-0.965z"></path>
</svg>