<svg version="1.1" viewBox="0 0 30 32"
    xmlns="http://www.w3.org/2000/svg"
    xmlns:xlink="http://www.w3.org/1999/xlink">
    <title>cart</title>
    <path d="M8.512 21.057h17.709c2.008 0 3.646-1.63 3.646-3.628v-7.414c0-0.007 0-0.020 0-0.026 0-0.020 0-0.033 0-0.053 0-0.013 0-0.026-0.007-0.039 0-0.013-0.007-0.033-0.007-0.046s-0.007-0.026-0.007-0.039c-0.007-0.013-0.007-0.026-0.013-0.046-0.007-0.013-0.007-0.026-0.013-0.039s-0.007-0.026-0.013-0.039c-0.007-0.013-0.013-0.026-0.020-0.046-0.007-0.013-0.013-0.026-0.020-0.033-0.007-0.013-0.013-0.026-0.020-0.039s-0.013-0.020-0.020-0.033c-0.007-0.013-0.020-0.026-0.026-0.039s-0.013-0.020-0.026-0.033c-0.007-0.013-0.020-0.020-0.026-0.033s-0.020-0.020-0.026-0.033c-0.007-0.013-0.020-0.020-0.026-0.026-0.013-0.013-0.020-0.020-0.033-0.033-0.013-0.007-0.020-0.020-0.033-0.026s-0.026-0.020-0.040-0.026c-0.013-0.007-0.020-0.013-0.033-0.020s-0.026-0.013-0.040-0.026c-0.013-0.007-0.026-0.013-0.040-0.020s-0.026-0.013-0.040-0.020c-0.013-0.007-0.026-0.013-0.040-0.020s-0.026-0.007-0.040-0.013c-0.013-0.007-0.033-0.013-0.046-0.013s-0.026-0.007-0.033-0.007-0.033-0.007-0.053-0.007c-0.007 0-0.013-0.007-0.026-0.007l-22.444-3.083v-3.115c0-0.033 0-0.066-0.007-0.092 0-0.007 0-0.013-0.007-0.026 0-0.020-0.007-0.039-0.007-0.059-0.007-0.020-0.007-0.033-0.013-0.053 0-0.013-0.007-0.020-0.007-0.033-0.007-0.020-0.013-0.039-0.020-0.059 0-0.007-0.007-0.020-0.007-0.026-0.007-0.020-0.013-0.033-0.026-0.053-0.007-0.007-0.007-0.020-0.013-0.026-0.007-0.013-0.013-0.026-0.026-0.039-0.007-0.013-0.013-0.020-0.020-0.033s-0.013-0.020-0.020-0.033c-0.007-0.013-0.020-0.026-0.026-0.039-0.007-0.007-0.013-0.013-0.020-0.020-0.013-0.013-0.026-0.026-0.040-0.039-0.007-0.007-0.013-0.013-0.020-0.020-0.013-0.013-0.026-0.026-0.046-0.039-0.007-0.007-0.020-0.013-0.026-0.020-0.013-0.013-0.026-0.020-0.040-0.033-0.020-0.013-0.040-0.026-0.053-0.033-0.007-0.007-0.013-0.007-0.020-0.013-0.026-0.013-0.059-0.026-0.086-0.039l-4.868-2.038c-0.456-0.191-0.978 0.020-1.169 0.473s0.020 0.973 0.476 1.163l4.32 1.814v19.442c0 1.84 1.387 3.365 3.177 3.595-0.324 0.539-0.515 1.17-0.515 1.84 0 1.978 1.618 3.582 3.6 3.582s3.6-1.61 3.6-3.582c0-0.657-0.178-1.282-0.495-1.808h8.019c-0.317 0.532-0.495 1.15-0.495 1.808 0 1.978 1.618 3.582 3.6 3.582s3.6-1.61 3.6-3.582c0-1.972-1.618-3.582-3.6-3.582h-16.843c-1.030 0-1.863-0.835-1.863-1.854v-2.406c0.542 0.316 1.182 0.5 1.863 0.5zM12.951 28.392c0 0.999-0.819 1.808-1.816 1.808s-1.816-0.815-1.816-1.808c0-0.992 0.819-1.808 1.816-1.808s1.816 0.808 1.816 1.808zM27.178 28.392c0 0.999-0.819 1.808-1.816 1.808s-1.816-0.815-1.816-1.808c0-0.992 0.819-1.808 1.816-1.808s1.816 0.808 1.816 1.808zM26.221 19.282h-17.709c-1.030 0-1.863-0.835-1.863-1.854v-9.59l21.434 2.938v6.645c0 1.032-0.839 1.86-1.863 1.86z"></path>
</svg>