<svg version="1.1" viewBox="0 0 32 32"
    xmlns="http://www.w3.org/2000/svg"
    xmlns:xlink="http://www.w3.org/1999/xlink">
    <title>close</title>
    <path d="M21.39 15.556l8.755-8.756c1.284-1.284 1.284-3.385 0-4.669l-1.167-1.167c-1.284-1.285-3.385-1.285-4.669 0l-8.755 8.756-8.756-8.756c-1.283-1.284-3.384-1.284-4.668 0l-1.168 1.167c-1.283 1.284-1.283 3.385 0 4.669l8.755 8.755-8.755 8.756c-1.283 1.284-1.283 3.385 0 4.668l1.168 1.167c1.284 1.284 3.385 1.284 4.668 0l8.756-8.753 8.755 8.753c1.284 1.284 3.385 1.284 4.669 0l1.167-1.167c1.284-1.284 1.284-3.385 0-4.668l-8.755-8.755z"></path>
</svg>