<svg version="1.1" viewBox="0 0 32 32"
    xmlns="http://www.w3.org/2000/svg"
    xmlns:xlink="http://www.w3.org/1999/xlink">
    <title>cocktail</title>
    <path fill="#3d4143" opacity="0.908401" style="fill: var(--color5, #3d4143)" d="M31.923 9.808l-2.835-9.289c-0.003-0.010-0.007-0.020-0.010-0.029v-0.001c-0.113-0.326-0.431-0.531-0.787-0.481-0.011 0.001-0.023 0.004-0.033 0.005l-9.557 1.727c-0.272 0.050-0.494 0.25-0.57 0.517-0.075 0.267 0.009 0.553 0.214 0.738l3.299 2.958c0.034 0.030 0.075 0.047 0.112 0.070l-0.006 0.010 1.815 1.108-2.153 3.028h-5.101l0.925-2.394c0.105-0.272 0.037-0.581-0.173-0.784l-0.644-0.623 1.106-0.147c0.285-0.038 0.521-0.24 0.601-0.516s-0.009-0.574-0.228-0.759l-1.308-1.105 0.73-0.249c0.379-0.13 0.582-0.543 0.453-0.922-0.131-0.38-0.543-0.582-0.923-0.453l-1.943 0.664c-0.247 0.084-0.43 0.296-0.478 0.553s0.045 0.52 0.245 0.689l1.033 0.873-0.967 0.128c-0.277 0.036-0.508 0.228-0.594 0.492-0.088 0.264-0.016 0.556 0.184 0.75l1.377 1.333-0.954 2.468h-1.8l-1.345-7.392c-0.038-0.206-0.162-0.385-0.34-0.493l-3.631-2.179c-0.338-0.205-0.787-0.096-0.996 0.249-0.207 0.344-0.095 0.79 0.25 0.996l3.348 2.009 1.239 6.809h-1.382c-0.356-2.457-2.456-4.357-5.010-4.357-2.803 0-5.084 2.281-5.084 5.084 0 2.001 1.18 3.774 2.98 4.593-0.036 0.401-0.075 0.802-0.075 1.217 0 7.199 5.901 15.251 13.799 15.251s13.799-8.052 13.799-15.251c0-2.277-0.55-4.357-1.635-6.182-0.131-0.22-0.367-0.355-0.624-0.355h-5.049l1.614-2.269 1.901 1.161 0.006-0.009c0.038 0.023 0.071 0.052 0.114 0.068l4.14 1.581c0.085 0.032 0.173 0.048 0.26 0.048 0.18 0 0.359-0.067 0.495-0.196 0.203-0.189 0.281-0.477 0.2-0.742zM1.453 10.894c0-2.002 1.628-3.631 3.631-3.631 1.754 0 3.22 1.25 3.558 2.905h-3.477c-0.257 0-0.494 0.135-0.624 0.355-0.633 1.064-1.061 2.225-1.327 3.451-1.074-0.645-1.761-1.795-1.761-3.079zM27.82 11.62c0.817 1.511 1.23 3.219 1.23 5.084 0 6.514-5.279 13.799-12.346 13.799-1.382 0-2.692-0.286-3.911-0.783 0.086 0.036 0.181 0.056 0.28 0.056 0.401 0 0.726-0.325 0.726-0.726s-0.325-0.726-0.726-0.726-0.726 0.325-0.726 0.726c0 0.299 0.181 0.556 0.44 0.667-5.012-2.046-8.429-7.775-8.429-13.013 0-1.864 0.413-3.573 1.23-5.084h11.973l1.336 6.679c0.061 0.304 0.308 0.536 0.616 0.577 0.316 0.042 0.607-0.119 0.746-0.395l1.233-2.465 1.037 5.187c0.068 0.338 0.363 0.582 0.706 0.584 0.003 0 0.004 0 0.006 0 0.342 0 0.638-0.239 0.711-0.574l2.056-9.594h1.814zM24.52 11.62l-1.256 5.861-0.765-3.825c-0.061-0.304-0.308-0.536-0.616-0.577-0.318-0.045-0.607 0.118-0.746 0.395l-1.233 2.465-0.863-4.318h5.478zM20.42 2.905l5.074-0.916-3.323 2.486-1.75-1.569zM26.551 7.26l-3.127-1.909 3.95-2.955-0.823 4.864zM27.904 7.973l0.691-4.093 1.506 4.932-2.197-0.839z"></path>
    <path fill="#3d4143" style="fill: var(--color5, #3d4143)" d="M12.346 27.597c0 0.401-0.325 0.726-0.726 0.726s-0.726-0.325-0.726-0.726c0-0.401 0.325-0.726 0.726-0.726s0.726 0.325 0.726 0.726z"></path>
    <path fill="#3d4143" style="fill: var(--color5, #3d4143)" d="M15.251 27.597c0 0.401-0.325 0.726-0.726 0.726s-0.726-0.325-0.726-0.726c0-0.401 0.325-0.726 0.726-0.726s0.726 0.325 0.726 0.726z"></path>
</svg>