<svg version="1.1" viewBox="0 0 44 32"
    xmlns="http://www.w3.org/2000/svg"
    xmlns:xlink="http://www.w3.org/1999/xlink">
    <title>crm</title>
    <path d="M40.933 0.035h-37.877c-1.581 0-2.868 1.277-2.868 2.847v26.026c0 1.57 1.287 2.847 2.868 2.847h37.877c1.581 0 2.868-1.277 2.868-2.847v-26.026c0-1.57-1.287-2.847-2.868-2.847zM10.386 30.399h-7.329c-0.828 0-1.502-0.669-1.502-1.491v-26.026c0-0.822 0.674-1.491 1.502-1.491h7.329v29.009zM42.436 28.908c0 0.822-0.674 1.491-1.502 1.491h-29.181v-29.009h29.181c0.828 0 1.502 0.669 1.502 1.491v26.026z"></path>
    <path d="M16.896 2.926h-2.914c-0.377 0-0.683 0.303-0.683 0.678s0.306 0.678 0.683 0.678h2.914c0.377 0 0.683-0.303 0.683-0.678s-0.306-0.678-0.683-0.678z"></path>
    <path d="M8.156 2.926h-4.37c-0.377 0-0.683 0.303-0.683 0.678s0.306 0.678 0.683 0.678h4.37c0.377 0 0.683-0.303 0.683-0.678s-0.306-0.678-0.683-0.678z"></path>
    <path d="M8.156 10.156h-4.37c-0.377 0-0.683 0.303-0.683 0.678s0.306 0.678 0.683 0.678h4.37c0.377 0 0.683-0.303 0.683-0.678s-0.306-0.678-0.683-0.678z"></path>
    <path d="M8.156 15.94h-4.37c-0.377 0-0.683 0.303-0.683 0.678s0.306 0.678 0.683 0.678h4.37c0.377 0 0.683-0.303 0.683-0.678s-0.306-0.678-0.683-0.678z"></path>
    <path d="M8.156 21.723h-4.37c-0.377 0-0.683 0.303-0.683 0.678s0.306 0.678 0.683 0.678h4.37c0.377 0 0.683-0.303 0.683-0.678s-0.306-0.678-0.683-0.678z"></path>
    <path d="M8.156 13.048h-4.37c-0.377 0-0.683 0.303-0.683 0.678s0.306 0.678 0.683 0.678h4.37c0.377 0 0.683-0.303 0.683-0.678s-0.306-0.678-0.683-0.678z"></path>
    <path d="M8.156 18.832h-4.37c-0.377 0-0.683 0.303-0.683 0.678s0.306 0.678 0.683 0.678h4.37c0.377 0 0.683-0.303 0.683-0.678s-0.306-0.678-0.683-0.678z"></path>
    <path d="M6.699 26.061h-2.914c-0.377 0-0.683 0.303-0.683 0.678s0.306 0.678 0.683 0.678h2.914c0.377 0 0.683-0.303 0.683-0.678s-0.306-0.678-0.683-0.678z"></path>
    <path d="M6.699 5.818h-2.914c-0.377 0-0.683 0.303-0.683 0.678s0.306 0.678 0.683 0.678h2.914c0.377 0 0.683-0.303 0.683-0.678s-0.306-0.678-0.683-0.678z"></path>
    <path d="M22.723 2.926h-2.914c-0.377 0-0.683 0.303-0.683 0.678s0.306 0.678 0.683 0.678h2.914c0.377 0 0.683-0.303 0.683-0.678s-0.306-0.678-0.683-0.678z"></path>
    <path d="M28.551 2.926h-2.914c-0.377 0-0.683 0.303-0.683 0.678s0.306 0.678 0.683 0.678h2.914c0.377 0 0.683-0.303 0.683-0.678s-0.306-0.678-0.683-0.678z"></path>
    <path d="M34.378 2.926h-2.914c-0.377 0-0.683 0.303-0.683 0.678s0.306 0.678 0.683 0.678h2.914c0.377 0 0.683-0.303 0.683-0.678s-0.306-0.678-0.683-0.678z"></path>
    <path d="M40.205 2.926h-2.914c-0.377 0-0.683 0.303-0.683 0.678s0.306 0.678 0.683 0.678h2.914c0.377 0 0.683-0.303 0.683-0.678s-0.306-0.678-0.683-0.678z"></path>
    <path d="M21.677 18.245c-0.302-0.225-0.73-0.164-0.956 0.135-0.565 0.747-1.428 1.175-2.368 1.175-1.632 0-2.959-1.318-2.959-2.937s1.327-2.937 2.959-2.937c0.94 0 1.804 0.429 2.369 1.177 0.226 0.299 0.654 0.36 0.956 0.135s0.363-0.649 0.136-0.949c-0.826-1.092-2.087-1.719-3.461-1.719-2.385 0-4.325 1.926-4.325 4.293s1.94 4.293 4.325 4.293c1.373 0 2.634-0.626 3.46-1.717 0.227-0.299 0.166-0.724-0.136-0.949z"></path>
    <path d="M28.413 17.957c1.299-0.271 2.277-1.417 2.277-2.786 0-1.57-1.287-2.847-2.868-2.847h-3.642c-0.377 0-0.683 0.303-0.683 0.678v7.23c0 0.374 0.306 0.678 0.683 0.678s0.683-0.303 0.683-0.678v-2.214h1.889l1.98 2.621c0.134 0.178 0.339 0.271 0.547 0.271 0.143 0 0.286-0.044 0.409-0.136 0.302-0.225 0.363-0.649 0.137-0.949l-1.412-1.869zM24.863 16.663v-2.982h2.959c0.828 0 1.502 0.669 1.502 1.491s-0.674 1.491-1.502 1.491l-2.959-0z"></path>
    <path d="M40.156 20.165l-0.728-7.229c-0.031-0.311-0.272-0.56-0.584-0.604s-0.613 0.129-0.73 0.419l-2.28 5.656-2.28-5.656c-0.117-0.29-0.418-0.463-0.73-0.419s-0.553 0.293-0.584 0.604l-0.728 7.23c-0.037 0.372 0.236 0.705 0.612 0.742s0.71-0.235 0.747-0.607l0.451-4.475 1.878 4.659c0.104 0.257 0.355 0.426 0.634 0.426s0.53-0.169 0.634-0.426l1.878-4.659 0.451 4.475c0.035 0.349 0.332 0.61 0.679 0.61 0.023 0 0.046-0.001 0.069-0.003 0.375-0.037 0.649-0.369 0.611-0.742z"></path>
</svg>