<svg version="1.1" viewBox="0 0 40 32"
    xmlns="http://www.w3.org/2000/svg"
    xmlns:xlink="http://www.w3.org/1999/xlink">
    <title>dialog</title>
    <path fill="#fff" style="fill: var(--color3, #fff)" d="M23.793 21.725c2.437-1.035 4.361-2.444 5.771-4.228s2.115-3.725 2.115-5.826c0-2.101-0.705-4.043-2.115-5.826s-3.333-3.193-5.771-4.228c-2.437-1.035-5.088-1.553-7.954-1.553s-5.516 0.518-7.954 1.553c-2.437 1.035-4.361 2.445-5.771 4.228s-2.115 3.725-2.115 5.826c0 1.798 0.533 3.492 1.598 5.078s2.527 2.925 4.387 4.013c-0.15 0.363-0.304 0.695-0.461 0.998s-0.345 0.593-0.563 0.873c-0.218 0.28-0.386 0.499-0.506 0.657s-0.315 0.382-0.585 0.669c-0.27 0.287-0.443 0.476-0.518 0.567 0-0.015-0.030 0.019-0.090 0.102s-0.094 0.121-0.101 0.114c-0.007-0.008-0.038 0.030-0.090 0.113s-0.079 0.125-0.079 0.125l-0.056 0.113c-0.022 0.045-0.038 0.090-0.045 0.136s-0.011 0.095-0.011 0.147 0.007 0.102 0.023 0.147c0.030 0.196 0.116 0.355 0.259 0.476s0.296 0.181 0.461 0.181h0.068c0.75-0.106 1.395-0.227 1.935-0.363 2.31-0.605 4.395-1.572 6.255-2.902 1.35 0.242 2.67 0.363 3.96 0.363 2.865 0.001 5.516-0.516 7.954-1.552zM11.205 19.833l-0.99 0.702c-0.42 0.287-0.885 0.582-1.395 0.885l0.788-1.905-2.182-1.27c-1.44-0.846-2.558-1.844-3.353-2.992s-1.192-2.343-1.192-3.582c0-1.542 0.589-2.985 1.766-4.33s2.763-2.411 4.758-3.197c1.995-0.786 4.14-1.179 6.435-1.179s4.44 0.393 6.435 1.179c1.995 0.786 3.581 1.852 4.759 3.197s1.766 2.788 1.766 4.33c0 1.542-0.588 2.985-1.766 4.33s-2.764 2.411-4.759 3.197c-1.995 0.786-4.14 1.179-6.435 1.179-1.125 0-2.272-0.106-3.442-0.317l-1.192-0.226z"></path>
    <path fill="#fff" style="fill: var(--color3, #fff)" d="M38.72 22.563c1.065-1.58 1.598-3.276 1.598-5.090 0-1.859-0.563-3.597-1.687-5.214s-2.655-2.962-4.59-4.035c0.345 1.133 0.517 2.282 0.517 3.446 0 2.025-0.502 3.944-1.507 5.758s-2.445 3.415-4.32 4.806c-1.74 1.27-3.72 2.244-5.94 2.924s-4.537 1.020-6.952 1.020c-0.45 0-1.11-0.030-1.98-0.090 3.015 1.995 6.555 2.992 10.619 2.992 1.29 0 2.61-0.121 3.96-0.363 1.86 1.33 3.945 2.297 6.255 2.902 0.54 0.136 1.185 0.257 1.935 0.363 0.18 0.015 0.345-0.038 0.495-0.158s0.248-0.287 0.292-0.498c-0.007-0.091 0-0.141 0.023-0.148s0.018-0.057-0.011-0.147c-0.030-0.091-0.045-0.136-0.045-0.136l-0.056-0.113c-0.016-0.030-0.041-0.072-0.079-0.124s-0.067-0.091-0.090-0.113c-0.022-0.023-0.056-0.061-0.101-0.113s-0.075-0.087-0.090-0.102c-0.075-0.091-0.247-0.28-0.517-0.567s-0.465-0.51-0.585-0.668c-0.12-0.159-0.289-0.378-0.506-0.658s-0.405-0.57-0.563-0.873c-0.157-0.302-0.311-0.635-0.461-0.997 1.859-1.089 3.322-2.423 4.386-4.003z"></path>
</svg>