<svg version="1.1" viewBox="0 0 32 32"
    xmlns="http://www.w3.org/2000/svg"
    xmlns:xlink="http://www.w3.org/1999/xlink">
    <title>exclamatory</title>
    <path fill="#f4c20c" style="fill: var(--color1, #f4c20c)" d="M16 29.333c7.364 0 13.333-5.97 13.333-13.333s-5.97-13.333-13.333-13.333c-7.364 0-13.333 5.97-13.333 13.333s5.97 13.333 13.333 13.333zM16 32c-8.837 0-16-7.163-16-16s7.163-16 16-16c8.837 0 16 7.163 16 16s-7.163 16-16 16zM16.974 23.038c0.24 0.247 0.36 0.572 0.36 0.974s-0.12 0.723-0.36 0.962c-0.24 0.24-0.564 0.359-0.974 0.359-0.395 0-0.716-0.12-0.963-0.359s-0.37-0.56-0.37-0.962c0-0.402 0.12-0.727 0.36-0.974s0.564-0.371 0.974-0.371c0.409 0 0.734 0.124 0.974 0.371zM16.951 6.985c0.255 0.212 0.383 0.53 0.383 0.954v10.762c0 0.424-0.128 0.747-0.383 0.968s-0.576 0.331-0.964 0.331c-0.387 0-0.704-0.11-0.95-0.331s-0.37-0.543-0.37-0.968v-10.762c0-0.424 0.123-0.742 0.37-0.954s0.563-0.318 0.95-0.318c0.387 0 0.708 0.106 0.964 0.318z"></path>
</svg>