<svg version="1.1" viewBox="0 0 32 32"
    xmlns="http://www.w3.org/2000/svg"
    xmlns:xlink="http://www.w3.org/1999/xlink">
    <title>facebook</title>
    <path d="M30.1 0.001h-28.341c-0.971 0-1.758 0.786-1.758 1.758v28.341c0 0.972 0.788 1.759 1.758 1.759h15.258v-12.338h-4.152v-4.809h4.152v-3.546c0-4.114 2.512-6.356 6.183-6.356 1.76 0 3.269 0.132 3.709 0.189v4.301l-2.546 0.001c-1.996 0-2.381 0.949-2.381 2.341v3.069h4.762l-0.623 4.808h-4.14v12.338h8.118c0.972 0 1.76-0.788 1.76-1.758v-28.343c-0.001-0.971-0.788-1.757-1.759-1.757z"></path>
</svg>