<svg class="map__svg" width="33px" height="46px" viewBox="0 0 33 46" version="1.1"
    xmlns="http://www.w3.org/2000/svg" xmlns:xlink="http://www.w3.org/1999/xlink">
    <!-- Generator: Sketch 45.2 (43514) - http://www.bohemiancoding.com/sketch -->
    <title>Свободно</title>
    <desc>Created with Sketch.</desc>
    <defs></defs>
    <g id="Map-icons" stroke="none" stroke-width="1" fill="none"
        fill-rule="evenodd">
        <g id="icons" transform="translate(-1044.000000, -192.000000)"
            stroke="#F4B16E" fill="#FFFFFF">
            <g id="Скоро-Copy" transform="translate(1032.000000, 193.000000)">
                <g id="Group-39" transform="translate(12.813559, 0.000000)">
                    <path
                        d="M15.6886514,45 C9.68942783,35.7357248 0.0364775239,25.1259105 0.0364775239,16.1864055 C0.0364775239,7.24690061 7.04419448,0 15.6886514,0 C24.3331084,0 31.3408254,7.24690061 31.3408254,16.1864055 C31.3408254,25.1259105 21.4161359,35.7877498 15.6886514,45 Z M15.6886514,24.4565217 C20.0108799,24.4565217 23.5147384,20.9526633 23.5147384,16.6304348 C23.5147384,12.3082063 20.0108799,8.80434783 15.6886514,8.80434783 C11.366423,8.80434783 7.86256448,12.3082063 7.86256448,16.6304348 C7.86256448,20.9526633 11.366423,24.4565217 15.6886514,24.4565217 Z"
                        id="Свободно"></path>
                </g>
            </g>
        </g>
    </g>
</svg>