<svg version="1.1" viewBox="0 0 32 32"
    xmlns="http://www.w3.org/2000/svg"
    xmlns:xlink="http://www.w3.org/1999/xlink">
    <title>gift</title>
    <path fill="#8aab64" style="fill: var(--color4, #8aab64)" d="M28.975 8.007h-3.571c1.272-0.799 2.108-2.113 2.108-3.599 0-2.431-2.229-4.409-4.969-4.409-2.325 0-5.077 3.984-6.614 6.558-1.536-2.574-4.29-6.558-6.614-6.558-2.739 0-4.969 1.978-4.969 4.409 0 1.486 0.835 2.8 2.108 3.599h-3.57c-1.591 0-2.885 1.294-2.885 2.885v4.573c0 1.133 0.658 2.112 1.611 2.584v10.466c0 1.591 1.294 2.885 2.885 2.885h23.083c1.591 0 2.885-1.294 2.885-2.885v-10.582c0.835-0.506 1.397-1.42 1.397-2.467v-4.574c0-1.59-1.294-2.885-2.885-2.885zM2.885 15.722c-0.142 0-0.257-0.115-0.257-0.256v-4.574c0-0.141 0.115-0.256 0.257-0.256h11.73v5.085l-11.73 0zM17.244 10.636h11.731c0.142 0 0.257 0.115 0.257 0.256v4.573c0 0.141-0.115 0.256-0.257 0.256h-11.731v-5.085zM22.543 2.629c1.268 0 2.34 0.815 2.34 1.78s-1.072 1.78-2.34 1.78h-3.246c1.33-1.92 2.696-3.446 3.246-3.56zM9.28 2.626c0.578 0.116 1.951 1.642 3.283 3.563h-3.246c-1.268 0-2.34-0.815-2.34-1.78s1.072-1.781 2.304-1.783zM4.239 28.516v-10.166h10.377v10.422h-10.121c-0.141 0-0.256-0.115-0.256-0.256zM27.578 28.773h-10.334v-10.423h10.591v10.165c0 0.142-0.115 0.257-0.257 0.257z"></path>
</svg>