<svg version="1.1" viewBox="0 0 37 32"
    xmlns="http://www.w3.org/2000/svg"
    xmlns:xlink="http://www.w3.org/1999/xlink">
    <title>group</title>
    <path d="M36.65 29.497l-1.456-5.024c-0.035-0.103-0.104-0.206-0.173-0.275-0.901-2.718-3.119-4.817-5.927-5.54l-0.416-0.069c-0.624-0.172-1.317 0.034-1.768 0.551-1.525 1.72-3.466 1.858-5.511 1.858s-3.986-0.138-5.511-1.858c-0.451-0.516-1.144-0.723-1.768-0.551l-0.416 0.103c-2.114 0.551-3.917 1.892-5.061 3.682h-4.367c-0.035 0-0.035 0-0.069-0.034 0-0.034-0.035-0.069-0.035-0.138l0.901-3.2c0.797-2.512 2.322-3.269 5.303-4.026 0.139-0.034 0.243-0.103 0.312-0.172 0.243 0.206 0.52 0.379 0.797 0.516 0.104 0.069 0.208 0.069 0.312 0.069 0.243 0 0.485-0.138 0.624-0.379 0.173-0.344 0.035-0.757-0.312-0.929-1.594-0.826-2.738-3.166-2.738-5.574 0-2.133 1.768-3.888 3.917-3.888 0.416 0 0.797 0.069 1.178 0.172-0.381 0.929-0.589 1.927-0.589 2.994 0 5.884 3.57 10.839 7.799 10.839 4.159 0 7.833-5.058 7.833-10.839 0-4.301-3.501-7.776-7.833-7.776-2.738 0-5.165 1.411-6.551 3.544-0.589-0.206-1.213-0.31-1.837-0.31-1.872 0-3.535 0.998-4.471 2.477-0.069-0.069-0.139-0.103-0.208-0.138-0.52-0.275-1.040-0.378-1.629-0.378-1.941-0.034-3.501 1.514-3.501 3.441 0 1.101 0.312 2.133 0.797 2.959-1.594 0.413-3.015 1.032-3.674 3.131l-0.555 1.996c-0.104 0.344-0.035 0.723 0.173 0.998 0.208 0.31 0.589 0.482 0.971 0.482h2.669c-0.035 0.138-0.104 0.275-0.139 0.413l-0.901 3.234c-0.139 0.447-0.035 0.929 0.277 1.308 0.277 0.378 0.693 0.585 1.178 0.585h3.674c-0.104 0.241-0.173 0.482-0.243 0.723l-1.456 5.058c-0.139 0.585-0.035 1.204 0.347 1.686s0.936 0.757 1.525 0.757h26.654c0.589 0 1.178-0.275 1.525-0.757 0.381-0.482 0.52-1.101 0.347-1.72zM15.957 4.895c0.035-0.034 0.069-0.069 0.104-0.138 0.035-0.034 0.035-0.103 0.069-0.138 1.075-1.927 3.154-3.234 5.546-3.234 2.877 0 5.303 1.892 6.135 4.473-1.213 0.241-2.496-0.241-3.258-1.273-0.243-0.31-0.659-0.378-0.971-0.138-0.139 0.103-0.208 0.206-0.243 0.344-0.035 0.034-0.035 0.069-0.069 0.103-0.971 1.961-4.229 2.787-7.937 2.065 0.104-0.723 0.312-1.411 0.624-2.065zM17.898 8.576c2.773 0 5.061-0.86 6.239-2.477 0.867 0.757 1.941 1.17 3.085 1.17 0.277 0 0.589-0.034 0.867-0.103 0.035 0.206 0.035 0.378 0.035 0.585 0 5.058-3.015 9.497-6.447 9.497-3.293 0-6.17-4.095-6.412-8.912 0.901 0.172 1.802 0.241 2.634 0.241zM1.469 16.834l0.485-1.72c0.416-1.411 1.282-1.824 3.015-2.237 0.104-0.034 0.208-0.069 0.277-0.138 0.173 0.138 0.312 0.241 0.52 0.344 0.104 0.069 0.208 0.069 0.312 0.069 0.243 0 0.485-0.138 0.624-0.379 0.173-0.344 0.035-0.757-0.277-0.929-0.901-0.482-1.56-1.824-1.56-3.2 0-1.17 0.936-2.099 2.114-2.099 0.381 0 0.693 0.069 1.005 0.241 0.104 0.034 0.173 0.069 0.277 0.069-0.173 0.516-0.277 1.067-0.277 1.652 0 1.961 0.659 3.888 1.698 5.23-2.080 0.516-3.917 1.204-5.13 3.097h-3.085zM35.229 30.391c-0.069 0.069-0.208 0.206-0.451 0.206h-26.654c-0.243 0-0.381-0.138-0.451-0.206-0.104-0.138-0.139-0.344-0.104-0.482l1.456-5.024c0.693-2.374 2.6-4.232 5.026-4.852l0.416-0.103c0.104-0.034 0.277 0.034 0.381 0.138 1.906 2.168 4.263 2.34 6.551 2.34s4.645-0.172 6.551-2.34c0.104-0.103 0.243-0.172 0.416-0.138l0.416 0.103c2.392 0.619 4.333 2.477 5.026 4.852l0.624 2.133c0.035 0.103 0.069 0.172 0.139 0.241l0.763 2.615c0.035 0.172 0 0.378-0.104 0.516z"></path>
</svg>