<svg version="1.1" viewBox="0 0 49 32"
    xmlns="http://www.w3.org/2000/svg"
    xmlns:xlink="http://www.w3.org/1999/xlink">
    <title>handshake</title>
    <path d="M48.601 15.197l-7.194-14.67c-0.070-0.14-0.189-0.25-0.339-0.3s-0.319-0.040-0.458 0.030l-5.989 2.94c-0.299 0.15-0.419 0.5-0.279 0.8l6.975 14.3-2.342 2.15c-1.983 1.83-4.225 3.36-6.646 4.55l-11.469 5.63c-0.319 0.16-0.678 0.18-1.016 0.060s-0.608-0.36-0.767-0.68c-0.159-0.32-0.179-0.68-0.060-1.020s0.359-0.61 0.678-0.77l6.407-3.15c0.299-0.15 0.419-0.5 0.279-0.8-0.149-0.3-0.508-0.42-0.797-0.28l-9.427 4.63c-0.658 0.32-1.465 0.050-1.784-0.61s-0.050-1.46 0.608-1.79l9.207-4.52c0.299-0.15 0.419-0.5 0.279-0.8-0.149-0.3-0.508-0.42-0.797-0.28l-10.333 5.070c-0.658 0.32-1.465 0.050-1.784-0.61s-0.050-1.47 0.608-1.79l1.136-0.56 8.241-4.050c0.299-0.15 0.419-0.5 0.279-0.8-0.149-0.3-0.508-0.42-0.797-0.28l-8.241 4.050c-0.319 0.16-0.678 0.18-1.016 0.060s-0.608-0.36-0.767-0.68c-0.159-0.32-0.179-0.68-0.060-1.020s0.359-0.61 0.678-0.77l4.374-2.15c0.299-0.15 0.419-0.5 0.279-0.8-0.149-0.3-0.508-0.42-0.797-0.28l-4.375 2.15c-0.608 0.3-1.066 0.82-1.285 1.46s-0.179 1.33 0.12 1.94c0.229 0.48 0.608 0.86 1.066 1.11-0.757 0.75-0.986 1.92-0.498 2.92 0.438 0.9 1.335 1.42 2.272 1.42 0.11 0 0.219-0.010 0.329-0.020-0.080 0.5-0.020 1.030 0.219 1.53 0.438 0.9 1.335 1.42 2.272 1.42 0.369 0 0.747-0.080 1.106-0.26l1.086-0.54c-0.050 0.47 0.030 0.94 0.249 1.37 0.299 0.61 0.817 1.070 1.455 1.29 0.269 0.090 0.548 0.14 0.827 0.14 0.379 0 0.757-0.090 1.106-0.26l11.469-5.63c2.531-1.24 4.853-2.84 6.925-4.75l2.601-2.4 5.909-2.9c0.299-0.15 0.419-0.5 0.279-0.8zM42.324 17.637l-6.646-13.63 4.923-2.41 6.636 13.63-4.913 2.41zM32.797 6.327l-12.306-4.26c-1.166-0.4-2.471-0.32-3.587 0.22l-0.618 0.3c-0.837 0.41-1.824 0.47-2.7 0.15l-1.056-0.38c-0.050-0.030-0.1-0.060-0.149-0.080l-6.298-2.15c-0.149-0.050-0.319-0.040-0.458 0.030s-0.249 0.19-0.299 0.34l-5.291 15.49c-0.11 0.31 0.060 0.65 0.369 0.76l6.308 2.17c0.070 0.030 0.13 0.040 0.199 0.040 0.090 0 0.179-0.020 0.259-0.060 0.139-0.070 0.249-0.19 0.299-0.34l5.092-14.9 0.638 0.23c1.176 0.42 2.501 0.34 3.627-0.21l0.618-0.3c0.827-0.41 1.804-0.47 2.671-0.17l11.848 4.1c-0.090 0.52-0.339 1.38-0.986 1.83-0.578 0.4-1.415 0.42-2.471 0.050l-5.172-1.77c-0.159-0.050-0.329-0.040-0.478 0.040s-0.249 0.22-0.299 0.38c-0.010 0.030-0.777 2.87-3.169 4.15-1.515 0.82-3.388 0.85-5.57 0.1-0.309-0.11-0.648 0.060-0.757 0.37s0.060 0.65 0.369 0.76c1.166 0.4 2.272 0.6 3.298 0.6 1.176 0 2.252-0.26 3.229-0.79 2.132-1.15 3.159-3.25 3.547-4.29l4.594 1.58c1.445 0.5 2.631 0.43 3.547-0.2 1.475-1.020 1.545-3.12 1.554-3.21 0.010-0.26-0.159-0.5-0.399-0.58zM6.54 17.587l-5.182-1.78 4.903-14.35 5.042 1.73c0.040 0.020 0.080 0.040 0.12 0.060l0.020 0.010-4.903 14.33z"></path>
</svg>