<svg version="1.1" viewBox="0 0 34 32"
    xmlns="http://www.w3.org/2000/svg"
    xmlns:xlink="http://www.w3.org/1999/xlink">
    <title>heart</title>
    <path d="M33.408 9.755c-0.486-5.347-4.27-9.226-9.006-9.226-3.155 0-6.044 1.698-7.67 4.419-1.611-2.756-4.381-4.42-7.486-4.42-4.735 0-8.52 3.879-9.005 9.226-0.038 0.236-0.196 1.479 0.283 3.506 0.69 2.924 2.284 5.583 4.607 7.688l11.594 10.521 11.793-10.52c2.324-2.106 3.917-4.765 4.607-7.689 0.479-2.026 0.321-3.269 0.284-3.505zM31.878 12.967c-0.63 2.67-2.090 5.103-4.218 7.030l-10.929 9.75-10.741-9.748c-2.132-1.932-3.591-4.364-4.221-7.034-0.453-1.918-0.267-3.002-0.266-3.009l0.010-0.065c0.416-4.684 3.668-8.084 7.733-8.084 3 0 5.64 1.843 6.893 4.81l0.589 1.397 0.589-1.397c1.233-2.921 4.013-4.809 7.084-4.809 4.065 0 7.317 3.4 7.741 8.145 0.001 0.010 0.188 1.094-0.266 3.012z"></path>
    <path d="M10.424 4.419c-3.529 0-6.4 2.871-6.4 6.4 0 0.354 0.286 0.64 0.64 0.64s0.64-0.286 0.64-0.64c0-2.823 2.297-5.12 5.12-5.12 0.354 0 0.64-0.286 0.64-0.64s-0.287-0.64-0.64-0.64z"></path>
</svg>