<svg version="1.1" viewBox="0 0 36 32" xmlns="http://www.w3.org/2000/svg" width="40px"
                                    height="40" xmlns:xlink="http://www.w3.org/1999/xlink">
                                    <title>help</title>
                                    <path stroke-width="1.1852" stroke-miterlimit="4" stroke-linecap="butt"
                                        stroke-linejoin="miter" fill="white" stroke="black"
                                        d="M14.115 3.035c0 1.336-1.092 2.419-2.439 2.419s-2.439-1.083-2.439-2.418c0-1.336 1.092-2.418 2.439-2.418s2.439 1.083 2.439 2.418z">
                                    </path>
                                    <path stroke-width="1.1852" stroke-miterlimit="4" stroke-linecap="butt" fill="white"
                                        stroke="black" stroke-linejoin="miter"
                                        d="M34.733 19.66l-2.767-3.769c-0.063-0.086-0.139-0.163-0.225-0.228l-4.069-3.064c-0.31-0.234-0.705-0.279-1.046-0.156-0.299 0.029-0.183 0.007-3.173 1.139-0.354 0.134-0.634 0.376-0.817 0.674l1.736-0.37-3.753 1.875c-3.469-1.959-3.508-2.058-3.974-2.013-0.221-0.16-0.299-0.157-1.412-0.44l-2.665-0.679-1.381-3.936 1.051 1.557 0.182-0.474c0.325-0.843-0.101-1.787-0.951-2.109-2.986-1.131-2.874-1.11-3.174-1.139-0.289-0.103-0.619-0.089-0.909 0.069l-4.51 2.461c-0.21 0.114-0.377 0.294-0.475 0.51l-1.712 3.773c-0.25 0.552-0.002 1.201 0.554 1.449s1.21 0.003 1.461-0.549l1.561-3.439 1.378-0.752-2.014 5.371c0 0-0.141 1.347-0.855 11.001-0.052 0.703 0.48 1.315 1.189 1.367 0.004 0-0.703 0.001-2.122 0.001-0.283 0-0.512 0.227-0.512 0.507v2.565c0 0.28 0.229 0.507 0.512 0.507h10.62c0.283 0 0.512-0.227 0.512-0.507v-2.565c0-0.28-0.229-0.507-0.512-0.507h-1.916c0.685-0.029 1.232-0.587 1.232-1.274v-6.011c0-0.243-0.070-0.481-0.201-0.686l-1.889-2.942 0.647-1.681c-0.427-0.352-0.679-0.852-0.713-1.181l-0.47-4.456 1.525 4.346c0.121 0.346 0.409 0.609 0.768 0.701 4.695 1.197 4.392 1.144 4.657 1.119 0.085 0.061-0.262-0.139 3.939 2.233 0.325 0.183 0.72 0.188 1.044 0.026l4.144-2.071-2.002 1.663 1.597 4.148-1.667 1.314c-0.219 0.173-0.376 0.413-0.446 0.682l-1.566 6.050c-0.177 0.683 0.238 1.378 0.927 1.553s1.39-0.236 1.567-0.919l1.458-5.635 2.653-2.092 0.467-0.177-0.486 2.741c-0.056 0.318 0.011 0.645 0.188 0.915l3.023 4.625c0.387 0.592 1.184 0.76 1.78 0.377s0.767-1.174 0.38-1.765l-2.748-4.204 0.664-3.75-1.418-4.633 0.672 0.506 2.671 3.639c0.359 0.489 1.050 0.597 1.544 0.241s0.602-1.042 0.243-1.531zM10.435 27.786h-6.316c0.641-0.029 1.174-0.529 1.223-1.18l0.76-10.252 0.263 0.1 2.837 4.419v5.639c0 0.687 0.547 1.245 1.232 1.274z">
                                    </path>
                                    <path stroke-width="1.1852" stroke-miterlimit="4" stroke-linecap="butt" fill="white"
                                        stroke="black" stroke-linejoin="miter"
                                        d="M25.686 8.951c0 1.336-1.092 2.418-2.439 2.418s-2.439-1.083-2.439-2.418c0-1.336 1.092-2.418 2.439-2.418s2.439 1.083 2.439 2.418z">
                                    </path>
                                </svg>