<?xml version="1.0" encoding="UTF-8"?>
<svg width="350px" height="424px" viewBox="0 0 350 424" version="1.1" xmlns="http://www.w3.org/2000/svg" xmlns:xlink="http://www.w3.org/1999/xlink">
    <!-- Generator: Sketch 44.1 (41455) - http://www.bohemiancoding.com/sketch -->
    <title>Asset 2</title>
    <desc>Created with Sketch.</desc>
    <defs></defs>
    <g id="2v" stroke="none" stroke-width="1" fill="none" fill-rule="evenodd">
        <g id="JoinUP!-to-travel-2" transform="translate(-563.000000, -322.000000)">
            <g id="Asset-2" transform="translate(563.000000, 322.000000)">
                <path d="M50.5643576,94.8817922 C50.6350239,96.0424176 50.2683441,97.1874353 49.5364989,98.091449 C48.7605867,98.9444367 47.6356182,99.3940876 46.4850432,99.3111186 C43.1873297,99.3111186 39.0437741,83.2628346 34.0543764,51.1662667 C33.3477235,46.4373723 32.8980353,43.7091641 32.7053118,42.9816419 C31.0136276,54.0870544 29.7180973,63.7160248 28.8187209,71.868553 C27.92863,79.8512489 27.4782627,87.8767944 27.4696563,95.9088824 C27.4365355,96.8515304 26.9901458,97.7319039 26.249074,98.316125 C25.511427,98.9899728 24.550349,99.3672569 23.5509448,99.3753117 C20.2104038,99.3753117 18.5401334,96.165655 18.5401334,89.7463414 C18.5401334,85.8305601 16.6557256,71.5582862 12.8869102,46.9295197 C9.11809479,22.3007532 6.73046456,8.8201947 5.72401953,6.4878441 C6.65483069,4.65378928 8.54855892,3.50844242 10.6063486,3.53495985 C12.7048936,3.53495985 14.6321287,7.81450224 16.3880541,16.373587 C18.1439795,24.9326718 19.6108196,35.4496472 20.7885744,47.9245133 C22.0091566,60.2709931 22.6408615,66.5298239 22.683689,66.7010056 C22.8121713,65.5669268 23.2725664,62.0577021 24.0648742,56.1733313 C24.8571819,50.2889605 25.4460594,45.5814639 25.8315064,42.0508414 C26.9047337,34.3991327 27.5695,26.6957521 27.8229827,18.973409 L27.8229827,16.6303596 C27.8513198,15.6583097 28.2406113,14.7315734 28.9150826,14.0305376 C29.5145681,13.2522193 30.4376766,12.7910102 31.4204884,12.7787714 C34.6753744,12.7787714 36.3028174,13.998441 36.3028174,16.4377802 L36.3028174,18.3314777 C36.9289983,30.1977181 38.988963,41.9447473 42.4378494,53.3167367 C44.2151885,59.9928229 45.489305,65.3422509 46.2601991,69.3650207 C46.7527148,64.7645126 47.6413843,58.1098242 48.9262077,49.4009554 C51.3363586,34.9105442 52.7529628,20.2725225 53.1661251,5.5891402 C53.0462661,4.17865781 53.3963363,2.76814005 54.1618633,1.5770692 C54.9842669,0.690381779 56.167907,0.229107304 57.3739219,0.325303054 C58.6676069,0.231452916 59.9557897,0.570194901 61.0356687,1.28820009 C61.8509605,1.85987638 62.3316633,2.79654581 62.3204921,3.79173239 C62.2742105,4.8825825 61.7590636,5.90040675 60.9071863,6.5841338 C60.6060128,21.4268954 58.8742048,36.206122 55.735772,50.7169147 C52.5976514,65.2386046 50.8658586,80.0284496 50.5643576,94.8817922 Z" id="Shape" fill="#FFFFFF" fill-rule="nonzero"></path>
                <path d="M83.8412847,51.6798118 L80.4365026,51.6798118 C79.4147525,51.577322 78.3978718,51.9160287 77.6420116,52.6106122 L77.6420116,91.1264938 L85.2545905,90.741335 C90.4581255,90.741335 93.0598929,91.8112206 93.0598929,93.9509918 L93.0598929,94.3682471 C92.3343619,95.5975039 91.1962998,96.530017 89.8478343,97.0001657 C88.5699151,97.545687 87.2158072,97.8920795 85.8327611,98.0272559 C84.67642,98.0272559 83.1881662,98.0272559 81.3679996,98.0272559 L77.0317205,98.0272559 C73.6483521,98.0272559 71.5069797,97.4174211 70.6076033,96.1977515 C70.2190508,95.5145356 70.0298816,94.7361859 70.0615533,93.9509918 L70.0615533,21.5090379 C69.9666083,19.3435291 69.6545476,17.1929955 69.1300563,15.0897243 C68.6034222,12.9868747 68.2913299,10.8361235 68.1985594,8.67041072 L68.1985594,8.31734847 C69.1618379,6.72657379 70.3042028,5.25122503 71.6033415,3.92011866 L81.9140496,2.82883535 C83.3779666,2.84909932 84.8135084,3.23530236 86.0897258,3.95221523 C87.339683,4.40346937 88.1824374,5.5773396 88.2096844,6.90509948 C88.2096844,9.38723407 86.1432601,10.6283014 82.0104113,10.6283014 L78.0595793,10.6283014 L76.5820323,10.6283014 L77.6420116,31.2663946 C77.6420116,32.9354161 77.534943,35.3640564 77.3208058,38.5523155 C77.0959617,41.7619723 76.9995999,44.0729252 76.9995999,45.5493673 L78.9910763,45.1321119 C80.41837,44.749473 81.8831567,44.5234619 83.359476,44.458084 C84.3846022,44.4516094 85.3773612,44.8164891 86.1539669,45.4851742 C86.9208055,46.0906675 87.3700434,47.0120979 87.3745492,47.9887065 C87.3835249,48.9595411 87.0282768,49.8985272 86.378811,50.620625 C85.7346353,51.3359447 84.8032576,51.7247103 83.8412847,51.6798118 Z" id="Shape" fill="#FFFFFF" fill-rule="nonzero"></path>
                <path d="M107.482036,50.2033696 L107.482036,54.1833441 L107.482036,54.7289857 C107.846069,61.9828101 108.028086,72.8528478 108.028086,87.3390988 L108.028086,90.5487556 L118.467276,90.5487556 C120.437339,91.7684251 121.42237,92.9239016 121.42237,94.0151849 C121.462868,95.0201198 121.105065,96.0004602 120.426632,96.7433932 C119.913941,97.3781257 119.154157,97.7635736 118.338794,97.8025799 C117.4984,97.7849054 116.665128,97.6443283 115.865509,97.3853245 C115.009697,97.5620635 114.137619,97.6481303 113.263742,97.6420971 L108.863221,97.4495177 C107.972564,98.4390413 106.693566,98.9901235 105.362077,98.9580564 C104.079691,98.9998878 102.825214,98.5782427 101.828813,97.7704834 C100.935982,97.1172186 100.401006,96.083704 100.383387,94.9780819 L101.250642,89.4895688 C101.250642,80.0103824 100.790247,65.7916028 99.8694572,46.83323 C98.948667,27.8748572 98.5310994,13.6560776 98.6167543,4.17689121 C98.6063387,3.42657245 98.9823898,2.72351904 99.6124925,2.31529027 C100.353778,1.82520227 101.229585,1.57836447 102.117898,1.60916577 C103.122491,1.60948618 104.092756,1.97448943 104.848148,2.63625595 C105.632814,3.25565271 106.084035,4.2048826 106.06873,5.20398138 L107.482036,50.2033696 Z" id="Shape" fill="#FFFFFF" fill-rule="nonzero"></path>
                <path d="M135.234222,36.5302317 L134.01364,45.2604982 L134.01364,48.245479 C133.870961,54.6730861 134.10692,61.1035138 134.720293,67.5034198 C135.191395,70.6488834 135.673204,73.4626826 136.165719,75.9448171 C136.877239,80.0099488 138.478588,83.8678475 140.855325,87.2428091 C142.800439,90.2445137 146.175809,92.0100829 149.752727,91.8968114 C151.857137,91.7048418 153.868294,90.9387308 155.566553,89.6821482 C157.122697,88.4582019 158.97176,87.6615972 160.930691,87.3711953 C162.417397,87.495384 163.80381,88.1708982 164.817282,89.2648928 C164.817282,93.5444352 162.215515,96.5401149 157.01198,98.2519319 C154.293967,99.1286446 151.452375,99.5621512 148.596386,99.5357946 C143.412785,99.7692523 138.435678,97.4857987 135.234222,93.4053501 C133.639886,91.3430865 132.372373,89.048113 131.476114,86.6008777 C130.43465,83.915204 129.586647,81.1585726 128.938588,78.3520597 C128.403244,75.5917549 127.953556,72.3820981 127.589523,68.7230894 C127.05418,62.7103323 126.765095,56.119837 126.722267,48.9516035 L126.722267,33.9946028 C126.760831,30.2297579 127.169658,26.4778173 127.942849,22.7929006 C127.686264,21.5034152 127.557161,20.1918475 127.557402,18.8771193 C127.465248,13.9713503 129.888381,9.35873434 133.98152,6.64832694 C138.458329,3.4944408 143.826574,1.85255859 149.303039,1.96222802 C151.550099,1.97526299 153.758309,2.54896836 155.727156,3.63124955 C157.581628,4.34120623 158.841514,6.07854849 158.939215,8.06057593 C158.969919,8.90805404 158.539953,9.70596605 157.814994,10.1468528 C156.619767,10.7341615 155.288367,10.9891556 153.960524,10.8850739 C152.545297,11.0455445 151.147768,10.4626644 150.266657,9.34443865 L150.266657,9.34443865 L148.403663,9.34443865 L148.403663,9.02347297 C143.093059,9.02347297 139.484847,10.5320117 137.579025,13.549089 C135.441738,17.9906463 134.521784,22.9192456 134.913017,27.8320618 L135.234222,36.5302317 Z" id="Shape" fill="#FFFFFF" fill-rule="nonzero"></path>
                <path d="M205.706788,59.8002435 L204.518326,75.6238515 L204.518326,76.1694931 C203.913557,78.6591756 203.622219,81.2145666 203.651071,83.7763797 C203.651105,86.4414078 203.127259,89.0804898 202.109282,91.5437492 C201.056934,94.07766 199.455274,96.3468086 197.419677,98.1877387 C195.589341,100.00396 193.125089,101.039552 190.545872,101.07643 C188.081231,101.088904 185.683582,100.275217 183.736307,98.765477 C181.642872,97.1676788 179.913005,95.1437169 178.661255,92.8276119 C177.189271,90.0676104 176.005287,87.1636388 175.12799,84.1615385 C174.125569,80.8768062 173.331682,77.5321105 172.751067,74.1474093 C172.19431,70.9591503 171.733915,67.5890106 171.369882,64.0369904 C170.834539,58.6875624 170.566867,54.5685029 170.566867,51.6798118 C170.566867,48.7911207 170.566867,46.2233952 170.566867,43.9766355 C170.566867,41.8368643 170.566867,39.9110702 170.566867,38.1992532 L170.566867,31.8762293 C170.566867,29.4796856 170.641815,27.3399144 170.791711,25.4569158 C170.941607,23.5739171 171.145038,21.5090379 171.402002,19.2622781 C171.640555,17.2831561 172.00533,15.3212742 172.494102,13.3886062 C172.945652,11.6805106 173.547584,10.0156947 174.292855,8.41363818 C174.981086,6.91679729 175.890629,5.53186374 176.990984,4.30527748 C178.889466,2.10420573 181.632143,0.809697335 184.539322,0.742558437 C187.088621,0.675157546 189.62161,1.1682281 191.959177,2.18690399 C194.072872,3.19712617 195.863487,4.77524556 197.130592,6.74461664 C198.455391,8.7351519 199.677566,10.7920125 200.792338,12.9071577 C202.033807,15.5480805 202.867698,18.3617106 203.265624,21.2522654 C203.865208,24.8042855 204.347017,27.6822778 204.71105,29.8862421 C205.145136,33.0787434 205.391816,36.2939001 205.449823,39.5152125 C205.621133,45.1000153 205.706788,49.4544497 205.706788,52.5785157 L205.706788,59.8002435 Z M193.597327,14.0305376 C192.850249,12.1391717 191.673693,10.447077 190.160424,9.0876661 C189.057816,8.0515501 187.624503,7.43773235 186.113231,7.35445143 C184.914713,7.34082953 183.759663,7.80250396 182.901172,8.63831415 C181.913602,9.67673579 181.158143,10.9130114 180.684852,12.2652263 C180.056279,13.9138426 179.520105,15.5961694 179.078822,17.3043875 C178.570159,19.3397045 178.215827,21.4104556 178.018843,23.4990251 C177.783292,25.8313757 177.569155,27.9711469 177.376431,29.9183387 C177.183708,31.8655305 177.055225,33.9304097 176.990984,36.1129763 C176.990984,39.9003713 176.926743,42.8532556 176.798261,44.9716291 L176.798261,45.5172707 C176.837523,51.5560442 177.309835,57.5842422 178.211566,63.5555419 C179.15377,69.9748555 180.128095,75.2600904 181.13454,79.4112465 C181.965353,83.0777473 183.328876,86.6029549 185.181734,89.8747276 C186.873418,92.742021 188.768532,94.1756677 190.867077,94.1756677 C192.965622,94.1756677 194.496704,92.6136348 195.460321,89.4895688 C196.845971,85.7142633 197.741933,81.777139 198.12633,77.7743215 C199.025706,69.4720093 199.486101,63.6411328 199.507515,60.281692 C199.528929,56.9222512 199.528929,54.4722132 199.507515,52.9315779 C199.507515,51.3909427 199.443274,49.1441829 199.314792,46.1912987 C199.186309,43.2384144 198.993586,40.4674107 198.736621,37.8782876 C198.479656,35.2891644 198.137037,32.4325699 197.708762,29.3085039 C197.34864,26.4805242 196.790514,23.6812579 196.038492,20.9312997 C195.372961,18.5813521 194.557572,16.2763853 193.597327,14.0305376 Z" id="Shape" fill="#FFFFFF" fill-rule="nonzero"></path>
                <path d="M215.792652,69.2045379 L215.342964,20.7708168 C215.342964,15.3571957 215.407205,10.0077677 215.535687,4.72253286 L219.325917,2.63625595 C222.04546,2.80743764 225.139743,9.44072835 228.608766,22.5361281 C231.413964,33.2349841 233.683819,42.8639544 235.41833,51.4230392 C237.152842,59.982124 238.105753,64.6147287 238.277062,65.3208532 C238.89806,62.6247414 240.054401,57.8209551 241.746086,50.9094941 C243.43777,43.9980332 244.711886,38.6486052 245.568435,34.8612102 C247.849382,25.0410146 249.38483,15.0626998 250.161679,5.01140197 L250.161679,4.17689121 C250.335638,3.12564852 250.94114,2.19480413 251.83195,1.60916577 C252.683042,0.993607105 253.704343,0.657166261 254.754923,0.646268733 C255.706644,0.58506098 256.636372,0.949618197 257.292449,1.64126234 C257.882337,2.21806039 258.2274,2.99961847 258.256067,3.82382896 C258.256067,13.7951627 258.662928,28.7735611 259.476649,48.7590241 C260.290371,68.7444871 260.697231,83.7228854 260.697231,93.6942192 C260.742269,95.5763265 260.128859,97.41518 258.96272,98.8938632 C258.261218,100.054099 257.088345,100.851056 255.750661,101.07643 C253.609289,101.07643 252.538603,99.428806 252.538603,96.1335584 L251.992553,43.4951869 L251.992553,37.0758734 C251.243072,40.1785416 249.797646,45.7419467 247.656273,53.7660887 C245.911981,59.835127 244.507208,65.9965048 243.448477,72.2216153 L243.448477,73.0240295 C243.448477,73.3449951 243.223633,74.1153128 243.06303,75.3349824 C242.902427,76.5546519 242.709703,77.5496455 242.484859,78.3520597 C242.248401,79.2601733 241.947856,80.1504068 241.585483,81.0160749 C240.969947,82.8020857 239.26747,83.983838 237.377686,83.9368626 C234.1228,83.9368626 232.495357,80.0531778 232.495357,72.2858084 C231.907457,61.2966906 229.84397,50.4364013 226.360325,39.996661 C224.218953,33.0852001 222.902009,28.4098 222.409493,25.9704608 C222.109701,32.646547 221.959805,37.6750093 221.959805,41.0558478 L223.084025,92.4103565 C223.078297,94.189566 222.333837,95.8865959 221.028308,97.0964554 C219.170904,97.3300948 217.334435,96.5295498 216.24234,95.0101785 C215.341967,93.2799733 214.920575,91.3408027 215.021758,89.3932791 L215.792652,69.2045379 Z" id="Shape" fill="#FFFFFF" fill-rule="nonzero"></path>
                <path d="M284.884033,51.6798118 L281.479251,51.6798118 C280.4575,51.577322 279.44062,51.9160287 278.68476,52.6106122 L278.68476,91.1264938 L286.200977,90.741335 C291.404512,90.741335 294.006279,91.8112206 294.006279,93.9509918 L294.006279,94.3682471 C293.282908,95.5993512 292.144076,96.5324952 290.794221,97.0001657 C289.51663,97.5466539 288.16237,97.8930852 286.779147,98.0272559 C285.622806,98.0272559 284.134552,98.0272559 282.314386,98.0272559 L278.13871,98.0272559 C274.755341,98.0272559 272.613969,97.4174211 271.714592,96.1977515 C271.32604,95.5145356 271.136871,94.7361859 271.168542,93.9509918 L271.168542,21.5090379 C271.073597,19.3435291 270.761537,17.1929955 270.237045,15.0897243 C269.710411,12.9868747 269.398319,10.8361235 269.305548,8.67041072 L269.305548,8.31734847 C270.268827,6.72657379 271.411192,5.25122503 272.710331,3.92011866 L282.988918,2.82883535 C284.453025,2.84773304 285.888899,3.23402536 287.164594,3.95221523 C288.414551,4.40346937 289.257306,5.5773396 289.284553,6.90509948 C289.370208,9.38723407 287.271663,10.6283014 282.988918,10.6283014 L279.038086,10.6283014 L277.560539,10.6283014 L278.620518,31.2663946 C278.620518,32.9354161 278.51345,35.3640564 278.299313,38.5523155 C278.074468,41.7619723 277.978107,44.0729252 277.978107,45.5493673 L279.969583,45.1321119 C281.396824,44.7492227 282.861638,44.5232072 284.337983,44.458084 C285.363109,44.4516094 286.355868,44.8164891 287.132474,45.4851742 C287.899312,46.0906675 288.34855,47.0120979 288.353056,47.9887065 C288.362032,48.9595411 288.006784,49.8985272 287.357318,50.620625 C286.72775,51.3183701 285.823859,51.7054619 284.884033,51.6798118 Z" id="Shape" fill="#FFFFFF" fill-rule="nonzero"></path>
                <path d="M75.0402442,166.16827 L74.7832795,182.216554 L76.0038618,211.103465 L77.1280823,233.571062 C77.1280823,237.636628 75.8111382,239.66941 73.1772502,239.66941 C71.8189296,239.688061 70.5701905,238.926899 69.9651916,237.71152 C69.2477827,236.381162 68.8828887,234.889529 68.9052122,233.378483 L69.9651916,213.414418 C69.9651916,209.134875 69.6546926,202.64067 69.0336946,193.931801 C68.4126966,185.222932 67.995129,178.707329 67.7809917,174.384991 L67.9737153,163.440061 C68.2365253,159.511051 67.8015459,155.566565 66.6888918,151.789007 L59.2690364,152.463035 C58.1258771,152.507313 56.9990673,152.180782 56.0569778,151.532235 C55.2016025,151.016192 54.6779333,150.091329 54.6757926,149.092896 C54.6757926,148.087203 55.7464788,147.241993 57.8878512,146.557267 C60.5015507,145.75143 63.1932554,145.22425 65.9179977,144.984535 C70.5151171,144.463016 75.1356573,144.173778 79.7619703,144.117927 C80.8604242,144.108642 81.931872,144.458011 82.813426,145.112921 C83.6497005,145.691865 84.1620558,146.632465 84.1946112,147.64855 C84.2297156,148.599816 83.7829411,149.504763 83.0061495,150.055793 C82.1553473,150.664598 81.1293163,150.980064 80.0831762,150.954496 L75.2008471,150.697724 L73.7875413,150.697724 C74.5400003,155.822017 74.9584495,160.989752 75.0402442,166.16827 L75.0402442,166.16827 Z" id="Shape" fill="#FFFFFF" fill-rule="nonzero"></path>
                <path d="M125.341082,201.025142 L124.15262,216.84875 L124.15262,217.394392 C123.538022,219.882891 123.235905,222.438177 123.253244,225.001279 C123.254982,227.676863 122.731152,230.326774 121.711456,232.800745 C120.658169,235.334139 119.056645,237.603094 117.02185,239.444734 C115.193426,241.263807 112.727965,242.299908 110.148045,242.333425 C107.683808,242.343427 105.286943,241.530006 103.33848,240.022473 C101.244368,238.425389 99.5143661,236.401269 98.2634279,234.084607 C96.7908254,231.324896 95.606814,228.420859 94.7301634,225.418534 C93.7285646,222.12271 92.9347002,218.767389 92.35324,215.372308 C91.7964832,212.184049 91.3360882,208.81391 90.9720548,205.261889 C90.5009529,199.912461 90.265402,195.739908 90.265402,192.744228 C90.265402,189.748548 90.265402,187.180823 90.265402,185.041052 C90.265402,182.90128 90.265402,180.975486 90.265402,179.263669 L90.265402,173.101128 C90.265402,170.704585 90.34035,168.564813 90.4902461,166.681815 C90.6401421,164.798816 90.8435725,162.733937 91.1005372,160.487177 C91.3395205,158.508121 91.7042909,156.546266 92.1926371,154.613505 C92.642728,152.904955 93.2447061,151.240011 93.9913899,149.638537 C94.6714416,148.144654 95.5699283,146.760072 96.6573986,145.530176 C98.593975,143.311328 101.387989,142.026342 104.334219,141.999554 C106.883343,141.934242 109.415884,142.427225 111.754074,143.4439 C113.793853,144.473065 115.514906,146.037497 116.732765,147.969516 C118.056952,149.960435 119.279108,152.017264 120.394512,154.132057 C121.640194,156.771376 122.474279,159.585662 122.867797,162.477164 C123.467381,166.050582 123.94919,168.928574 124.313223,171.111141 C124.749079,174.303454 124.995767,177.518715 125.051997,180.740112 C125.223306,186.324914 125.308961,190.679349 125.308961,193.803415 L125.341082,201.025142 Z M113.1995,155.255437 C112.460663,153.367786 111.295446,151.67619 109.794718,150.312565 C108.69211,149.276449 107.258796,148.662631 105.747524,148.57935 C104.549006,148.565729 103.393957,149.027403 102.535466,149.863213 C101.547896,150.901635 100.792437,152.13791 100.319145,153.490125 C99.690131,155.138587 99.1539493,156.820939 98.7131161,158.529286 C98.2054021,160.564803 97.8510831,162.635482 97.6531367,164.723924 C97.4175858,167.056275 97.2034485,169.196046 97.010725,171.143238 C96.8180015,173.090429 96.7109329,175.155309 96.6895192,177.337875 C96.6895192,181.12527 96.625278,184.078155 96.4967956,186.196528 L96.4967956,186.74217 C96.535838,192.780953 97.008151,198.809166 97.9101014,204.780441 C98.8523053,211.199754 99.8266297,216.484989 100.833075,220.636145 C101.663888,224.302646 103.027411,227.827854 104.880269,231.099627 C106.571953,233.96692 108.467067,235.400567 110.565612,235.400567 C112.664157,235.400567 114.205945,233.838534 115.190977,230.714468 C116.576966,226.939263 117.472937,223.002094 117.856985,218.999221 C118.756362,210.696908 119.216757,204.866032 119.238171,201.506591 C119.259584,198.14715 119.259584,195.697112 119.238171,194.156477 C119.238171,192.615842 119.173929,190.369082 119.045447,187.416198 C118.916965,184.463313 118.724241,181.69231 118.467276,179.103187 C118.188898,176.514063 117.846278,173.657469 117.439418,170.533403 C117.077542,167.705709 116.51944,164.906564 115.769147,162.156199 C115.060971,159.803465 114.202664,157.498489 113.1995,155.255437 L113.1995,155.255437 Z" id="Shape" fill="#FFFFFF" fill-rule="nonzero"></path>
                <path d="M166.90512,166.16827 L166.648156,182.216554 L167.836617,211.103465 L168.960838,233.571062 C168.960838,237.636628 167.643894,239.66941 165.010006,239.66941 C163.651685,239.688061 162.402946,238.926899 161.797947,237.71152 C161.080538,236.381162 160.715644,234.889529 160.737968,233.378483 L161.797947,213.414418 C161.797947,209.134875 161.487448,202.64067 160.86645,193.931801 C160.245452,185.222932 159.934953,178.728727 159.934953,174.449184 L160.127677,163.504255 C160.392527,159.575201 159.957509,155.630356 158.842853,151.8532 L151.294515,152.463035 C150.151356,152.507313 149.024546,152.180782 148.082457,151.532235 C147.227081,151.016192 146.703412,150.091329 146.701272,149.092896 C146.701272,148.087203 147.771958,147.241993 149.91333,146.557267 C152.52703,145.75143 155.218734,145.22425 157.943477,144.984535 C162.540596,144.463016 167.161136,144.173778 171.787449,144.117927 C172.886268,144.106275 173.958453,144.455884 174.838905,145.112921 C175.675179,145.691865 176.187535,146.632465 176.22009,147.64855 C176.255195,148.599816 175.80842,149.504763 175.031628,150.055793 C174.180826,150.664598 173.154795,150.980064 172.108655,150.954496 L167.354808,150.697724 L165.941503,150.697724 C166.598791,155.82817 166.92068,160.995976 166.90512,166.16827 L166.90512,166.16827 Z" id="Shape" fill="#FFFFFF" fill-rule="nonzero"></path>
                <path d="M207.698264,240.632307 C205.385582,240.632307 204.229241,239.252155 204.229241,236.49185 C204.229241,220.614748 203.833087,205.925218 203.040779,192.423262 C200.80271,192.026579 198.536134,191.811898 196.263336,191.781331 C194.30407,191.749115 192.355445,192.075456 190.513751,192.744228 C190.513751,197.387531 190.888491,204.405981 191.637971,213.799576 C192.387452,223.193172 192.762192,230.297212 192.762192,235.111698 C192.758278,235.930125 192.474997,236.722717 191.959177,237.358457 C191.460474,238.023429 190.670561,238.406131 189.839219,238.385548 C187.333813,238.385548 185.50294,231.238712 184.346598,216.94504 C182.783397,197.537315 182.001796,173.999832 182.001796,146.332591 C181.921724,145.697952 182.146885,145.062879 182.608928,144.620156 C183.07097,144.177433 183.715402,143.979273 184.346598,144.085831 C185.291044,144.110936 186.220289,144.329419 187.076848,144.727762 C187.85778,145.026434 188.560678,145.49834 189.132566,146.107915 C188.808947,149.232216 188.648127,152.371218 188.650757,155.512209 L189.582254,181.189463 L189.582254,185.875562 C189.571813,186.950969 189.657812,188.025149 189.839219,189.085219 L203.137141,188.154419 L202.591091,147.135005 L202.591091,143.925348 C205.46569,143.501428 208.181775,145.362094 208.822485,148.194192 C209.200238,151.76523 209.296896,155.360388 209.11157,158.946542 C209.11157,164.595538 209.550552,176.588955 210.428514,194.926795 C211.306477,213.264634 211.745458,226.991266 211.745458,236.106691 C211.76807,237.27668 211.369075,238.415815 210.621238,239.316348 C209.916939,240.201173 208.828145,240.691361 207.698264,240.632307 L207.698264,240.632307 Z" id="Shape" fill="#FFFFFF" fill-rule="nonzero"></path>
                <path d="M235.321968,192.904711 L231.917186,192.904711 C230.895436,192.802221 229.878556,193.140928 229.122695,193.835511 L229.122695,232.351393 L236.735274,231.998331 C241.938809,231.998331 244.540577,233.068216 244.540577,235.207987 L244.540577,235.625243 C243.812913,236.852672 242.675608,237.784565 241.328518,238.257161 C240.050763,238.803165 238.696579,239.149577 237.313445,239.284251 C236.157104,239.284251 234.66885,239.284251 232.848683,239.284251 L228.544525,239.284251 C225.161156,239.284251 223.019784,238.674417 222.120408,237.454747 C221.731855,236.771531 221.542686,235.993181 221.574358,235.207987 L221.574358,162.733937 C221.479628,160.568408 221.167564,158.417853 220.642861,156.314623 C220.116226,154.211774 219.804134,152.061023 219.711364,149.89531 L219.711364,149.478054 C220.674176,147.88696 221.81658,146.41156 223.116146,145.080825 L233.266251,143.989541 C234.730168,144.009805 236.16571,144.396008 237.441927,145.112921 C238.691884,145.564175 239.534639,146.738045 239.561886,148.065805 C239.561886,150.54794 237.495461,151.789007 233.362613,151.789007 L229.411781,151.789007 L227.934234,151.789007 L228.994213,172.4271 C228.994213,174.096122 228.887144,176.524762 228.673007,179.713021 C228.448163,182.922678 228.351801,185.233631 228.351801,186.710073 L230.343278,186.292818 C231.801596,185.901878 233.299231,185.675785 234.808039,185.61879 C235.833165,185.612315 236.825924,185.977195 237.60253,186.64588 C238.369369,187.251373 238.818607,188.172804 238.823112,189.149412 C238.832088,190.120247 238.47684,191.059233 237.827374,191.781331 C237.202593,192.51162 236.283273,192.923827 235.321968,192.904711 Z" id="Shape" fill="#FFFFFF" fill-rule="nonzero"></path>
                <path d="M341.19142,318.402291 C338.285579,317.981183 335.440929,319.486811 334.157012,322.125493 C334.157012,322.125493 334.157012,322.125493 334.157012,322.125493 C334.108699,319.1699 332.164889,316.580092 329.338924,315.70618 C327.071544,314.851167 324.536908,315.083143 322.46269,316.33551 C320.388472,317.587877 319.004098,319.722112 318.70701,322.125493 C318.000357,325.33515 319.959713,328.897869 321.919068,332.492685 C322.465118,333.487678 323.075409,334.482672 323.685701,335.509762 L323.685701,335.509762 C325.709298,338.719419 328.246824,344.272125 328.857115,345.138733 L328.857115,345.331312 C332.069174,343.277132 333.771565,341.255048 337.465432,338.911998 L337.465432,338.911998 C338.557532,338.173777 339.649632,337.467653 340.677491,336.697335 C343.889549,334.322189 347.101608,331.818657 347.968864,328.576903 C348.72946,326.310864 348.399018,323.820746 347.073687,321.831097 C345.748356,319.841449 343.577001,318.575754 341.19142,318.402291 Z" id="Shape" stroke="#FFFFFF" stroke-width="1.5" stroke-linecap="round" stroke-linejoin="round"></path>
                <path d="M62.5774568,273.146131 C62.7211253,272.44716 63.1080664,271.821694 63.6695567,271.380819 C64.1774076,270.984095 64.7929673,270.749239 65.436189,270.706791 C66.0379731,270.662132 66.6373695,270.820345 67.13858,271.156143 C67.672187,271.536462 68.0032627,272.139042 68.0379564,272.793068 L67.2028212,280.303665 L80.564985,282.229459 C84.9976258,282.849993 89.4516804,283.417032 93.9271488,283.930577 C95.5652986,284.251543 96.3040721,285.086054 96.1113486,286.369917 C95.9186251,287.653779 94.9550075,288.48829 93.2204959,288.809256 C88.7450275,288.809256 84.290973,288.638074 79.8583321,288.295711 C75.4256912,287.953347 70.9716366,287.73937 66.4961683,287.653779 C66.2177899,290.071721 65.9394115,292.307782 65.6610331,294.361962 C65.3826546,296.416142 65.0614488,298.395431 64.6974155,300.299827 C64.3333822,302.225621 63.9479351,304.183512 63.5410744,306.173499 C63.1342136,308.163486 62.7059391,310.303257 62.2562509,312.592813 C61.9778725,313.769687 61.7530284,314.893067 61.5817186,315.962952 C61.4104088,317.032838 61.2283922,318.156218 61.0356687,319.333092 C63.7766253,319.333092 66.4961683,319.333092 69.1942975,319.333092 L76.9353588,319.782444 L80.1474174,320.10341 L84.2588524,320.552761 C85.524519,320.698071 86.7797256,320.923196 88.0169609,321.226789 C88.8208633,321.337572 89.5658856,321.709805 90.1369196,322.285976 C91.036296,323.46285 90.8542794,324.714616 89.5908696,326.041275 C89.0942265,326.396543 88.5676065,326.707983 88.0169609,326.972075 C87.431831,327.26534 86.8024459,327.46052 86.1539669,327.549813 C85.5526388,327.63275 84.9401006,327.54372 84.3873347,327.293041 C83.7917253,326.977439 83.3508561,326.432561 83.1667524,325.784502 C79.3336958,325.61332 75.5006392,325.549127 71.6675826,325.591923 C67.834526,325.634718 63.8622802,325.741707 59.7508452,325.912888 C58.91571,330.427806 57.9306787,334.835734 56.7957513,339.136674 C55.6608239,343.437614 54.2689319,347.845543 52.6200751,352.36046 C51.6136301,355.291947 50.5429439,358.148541 49.4080165,360.930244 C48.2268291,363.717157 46.7056429,366.347596 44.8790139,368.761807 C42.4523014,372.382834 38.9624757,375.163637 34.8895116,376.721755 C31.3072109,378.000021 27.4482905,378.299196 23.7115477,377.588363 C19.9006597,376.882512 16.2989287,375.324392 13.1759955,373.03065 C9.97532336,370.707486 7.26774588,367.772834 5.21009016,364.396673 C3.17628884,361.051376 1.93478423,357.285733 1.58046394,353.387551 C1.23824268,349.247715 2.14441664,345.100318 4.1822314,341.479724 C6.26126432,337.759866 9.05580474,334.487463 12.4051014,331.850753 C15.7177241,329.214532 19.382799,327.053863 23.2939801,325.43144 C27.4369851,323.759021 31.7429232,322.521989 36.1422145,321.740335 C40.6605103,320.905824 45.2537541,320.274591 49.9219459,319.846637 C50.3458498,319.933101 50.7828655,319.933101 51.2067693,319.846637 L52.5237134,319.589864 C53.25178,316.658378 53.9798466,313.898073 54.7079132,311.30895 C55.4359798,308.719827 56.1426327,306.173499 56.8278719,303.669967 C57.5131111,301.166434 58.1555228,298.598709 58.7551071,295.96679 C59.3546913,293.334872 59.8793276,290.521073 60.3290158,287.525393 C55.1254808,287.354211 49.9861871,287.247223 44.9111345,287.204427 C39.8360819,287.161632 34.6111332,287.279319 29.2362885,287.55749 L23.9042712,288.135228 L18.5722539,288.809256 C16.2990148,289.147487 14.1155022,289.932964 12.1481367,291.120209 C11.0088216,291.753014 10.208888,292.857978 9.96393689,294.137286 C9.90674612,295.405313 10.4999811,296.615092 11.5378456,297.346943 C13.0533247,298.537091 14.8053927,299.390586 16.6771394,299.850475 C18.7940356,300.310798 20.9407003,300.621831 23.1012566,300.781276 L29.2362885,301.230628 C32.2556236,301.401809 35.2214244,301.530196 38.1336908,301.615786 C41.0863485,301.703392 44.0233305,302.079646 46.9026108,302.739166 C47.6250353,302.796152 48.2789598,303.188213 48.6692431,303.798353 C48.8994887,304.342055 48.8994887,304.95577 48.6692431,305.499471 C48.4533725,306.130542 48.0209929,306.664927 47.4486608,307.00801 C46.744555,307.438392 45.9285979,307.650605 45.103858,307.617845 C42.0879141,307.41562 39.0617967,307.41562 36.0458527,307.617845 C32.3841059,307.874617 28.6367042,308.045799 24.8036476,308.13139 C21.1680925,308.219769 17.5306515,308.069662 13.914769,307.682038 C11.2290687,307.539291 8.62717981,306.698458 6.36643125,305.242699 C3.77872665,303.33539 1.8571326,300.662891 0.873811044,297.603715 C0.0469003337,295.018487 0.149144679,292.225898 1.16289632,289.70796 C2.34808789,287.07185 4.27986534,284.840251 6.7197577,283.288646 C9.78394397,281.26178 13.2835799,279.986138 16.9341041,279.565444 C24.3694484,278.405866 31.89704,277.943803 39.4185143,278.185292 C46.8276628,278.442064 54.2261044,278.944911 61.6138392,279.69383 L62.5774568,273.146131 Z M49.0225695,332.268009 C49.3009479,331.347907 49.5579126,330.449203 49.7934636,329.571897 C50.0290145,328.694591 50.2752724,327.795887 50.532237,326.875785 C44.4942507,327.565599 38.574954,329.05511 32.9301559,331.305112 C27.4362342,333.368647 22.4120791,336.511853 18.1546863,340.548923 C16.8736599,341.899296 15.9179022,343.523967 15.3601953,345.299215 C14.7534769,347.197738 14.4499618,349.179943 14.4608189,351.172887 C14.5061661,355.531399 15.6909682,359.802349 17.8977216,363.562163 C18.9081276,365.25142 20.4582089,366.55161 22.2982419,367.253268 C23.9834071,367.86384 25.7777828,368.115302 27.566018,367.991489 C29.3180851,367.874923 31.0359605,367.451207 32.6410706,366.739723 C34.0347521,366.178312 35.277726,365.298989 36.2706968,364.171997 C38.0592668,361.91642 39.5791514,359.460572 40.7996995,356.85398 C42.0845229,354.13647 43.2301572,351.354768 44.2366022,348.508872 C45.2430472,345.662976 46.110303,342.849177 46.8383696,340.067475 C47.5450225,337.30717 48.2623823,334.664553 48.9904489,332.139623 L49.0225695,332.268009 Z" id="Shape" fill="#FFFFFF" fill-rule="nonzero"></path>
                <path d="M110.533492,331.78656 C110.507939,332.217045 110.410218,332.640185 110.244406,333.038326 C111.775899,332.631054 113.409945,332.976689 114.644927,333.969127 C115.806158,335.093267 116.366118,336.700458 116.154594,338.302164 C115.790561,339.800003 115.223097,341.757894 114.452203,344.175836 C113.681309,346.593777 112.953243,349.075912 112.268003,351.622239 C111.582764,354.168567 111.036714,356.586508 110.629853,358.876064 C110.178436,360.666901 110.178436,362.541643 110.629853,364.33248 C112.011365,364.250009 113.35394,363.843139 114.548565,363.144907 C115.808879,362.417553 117.002031,361.579749 118.11395,360.641375 C119.252003,359.640993 120.324878,358.56892 121.326009,357.431718 L124.056258,354.414641 C124.688347,353.952095 125.457428,353.714762 126.240458,353.740613 C126.88983,353.753315 127.514494,353.991645 128.007091,354.414641 C128.461123,354.840595 128.726924,355.42954 128.745864,356.051566 C128.767876,356.785643 128.502888,357.499423 128.007091,358.041553 L126.433182,359.871057 C125.469564,361.005136 124.302516,362.256902 122.932038,363.626356 C121.56156,364.995809 120.09472,366.354564 118.531518,367.70262 C115.831533,370.186539 112.275522,371.531982 108.606257,371.457918 C106.694612,371.542206 104.905778,370.517209 104.013013,368.826 C103.224092,367.240532 102.651525,365.5565 102.310622,363.818935 C101.991763,362.168917 101.830436,360.492369 101.828813,358.81187 C100.178485,360.315233 98.3564339,361.618803 96.4004339,362.695555 C94.4303713,363.786839 92.2889989,364.910218 89.9763167,366.065695 C89.0004243,366.255312 87.9971152,366.255312 87.0212228,366.065695 C85.9763954,365.864194 84.961696,365.529809 84.0018877,365.070701 C83.0513727,364.615228 82.1744084,364.020203 81.4001202,363.30539 C80.6596891,362.653483 80.1148355,361.809036 79.8262115,360.866051 C79.0536467,358.172684 78.9325457,355.334438 79.472885,352.585136 C80.0008885,349.050473 80.9164803,345.584589 82.2031349,342.250041 C83.4626812,338.884397 85.0665011,335.657644 86.9891022,332.621071 C88.4242401,330.135183 90.4835134,328.066386 92.9635312,326.619013 L96.4646751,324.629026 C97.5782634,323.972687 98.8126403,323.546982 100.094301,323.377259 C101.492346,323.083755 102.936174,323.083755 104.334219,323.377259 C105.5242,323.716679 106.622167,324.32011 107.546277,325.142571 C108.465924,325.92967 109.191398,326.918213 109.666236,328.031262 C110.273128,329.187884 110.571799,330.481157 110.533492,331.78656 L110.533492,331.78656 Z M89.3017844,355.82689 C91.4886669,354.74007 93.4081425,353.183717 94.9228869,351.269177 C96.3858128,349.392111 97.737202,347.430846 98.9700808,345.395505 L102.599707,339.45764 C103.794897,337.529397 105.329262,335.833071 107.12871,334.450575 C106.007804,334.209375 105.205953,333.221164 105.201474,332.075429 L105.201474,330.95205 L101.347004,329.82867 C99.2141175,331.10673 97.3489447,332.78522 95.8543839,334.771541 C94.3059962,336.816948 93.0217603,339.049201 92.0320342,341.415531 C91.0362268,343.766955 90.3037081,346.221211 89.8478343,348.733548 C89.3567585,351.064044 89.1731815,353.448762 89.3017844,355.82689 L89.3017844,355.82689 Z" id="Shape" fill="#FFFFFF" fill-rule="nonzero"></path>
                <path d="M132.022164,333.904934 C133.114264,331.893549 134.002933,330.352914 134.688172,329.283028 C135.147514,328.477397 135.720897,327.742285 136.390563,327.100461 C136.840252,326.715303 137.225699,326.586916 137.482663,326.715303 C137.774502,326.861223 138.011166,327.09771 138.157196,327.38933 C138.81716,328.46163 139.172488,329.693252 139.185054,330.95205 C139.213607,332.479088 139.095288,334.005336 138.831728,335.509762 C138.574763,337.178784 138.157196,338.944095 137.675387,340.837792 C137.193578,342.73149 136.647528,344.625187 136.101478,346.550982 C137.193578,344.625187 138.264264,342.688695 139.313537,340.741503 C140.287931,338.826233 141.360027,336.962182 142.525595,335.1567 C143.168007,334.236598 143.928194,333.027628 144.806157,331.529788 C145.687738,330.00245 146.69783,328.552871 147.825492,327.196751 C148.905626,325.87661 150.171479,324.719816 151.583601,323.762418 C152.906246,322.854641 154.530885,322.497718 156.112603,322.767425 C156.932115,322.941178 157.721982,323.233102 158.457406,323.634032 C159.123392,324.098772 159.681982,324.700723 160.095556,325.399343 C160.996249,327.117886 161.417833,329.046854 161.316138,330.984146 C161.215214,332.984331 160.935726,334.971512 160.481003,336.922011 C160.031315,338.933396 159.506679,340.934082 158.907094,342.924069 C158.336809,344.791448 157.991746,346.720201 157.879236,348.669355 L166.391191,336.151694 C166.948169,335.231227 167.763543,334.494591 168.735994,334.03332 C169.589604,333.636766 170.525661,333.449695 171.466243,333.487678 C172.380582,333.525575 173.253972,333.876937 173.939529,334.482672 C174.729303,335.208855 175.297245,336.143589 175.577678,337.178784 C175.551129,339.025767 175.41168,340.869405 175.160111,342.699393 C174.881732,344.839165 174.699716,346.978936 174.614061,349.118707 C174.511436,351.264923 174.629834,353.415996 174.967387,355.538021 C175.160719,357.265691 175.903807,358.885761 177.087346,360.159926 C179.453368,359.804147 181.675834,358.804785 183.511463,357.271235 C185.858656,355.536944 187.983815,353.521169 189.839219,351.269177 C193.098754,347.136997 195.818736,342.607084 197.933606,337.788618 C198.488263,336.568332 199.86382,335.949794 201.145665,336.344273 C202.430118,336.645083 203.285956,337.858913 203.137141,339.168771 C201.312393,344.420509 198.702465,349.365925 195.39608,353.836902 C191.876389,358.385366 187.797051,362.472437 183.254498,366.001502 C182.160378,366.763625 180.958723,367.358594 179.689113,367.766813 C177.973681,368.256587 176.144373,368.166318 174.485579,367.51004 C173.100005,367.057967 171.851397,366.262988 170.855952,365.199088 C169.884348,364.147861 169.092196,362.944256 168.51115,361.636368 C167.915451,360.305024 167.45281,358.918139 167.129964,357.495911 C166.832227,356.217914 166.628254,354.919903 166.519673,353.612226 C165.7809,354.767703 164.977885,355.923179 164.110629,357.046559 C163.256217,358.209838 162.287805,359.285048 161.219776,360.256216 C160.175722,361.164366 158.993955,361.901064 157.718633,362.438783 C156.374049,362.989596 154.931745,363.262555 153.478715,363.241197 C152.345933,363.159548 151.247026,362.819141 150.266657,362.246203 C149.355006,361.618014 148.606265,360.781811 148.082457,359.806864 C147.364087,357.554688 146.995769,355.205709 146.990357,352.841909 C146.986051,350.552007 147.168674,348.26557 147.536407,346.00534 C145.245138,349.856928 142.868215,353.76201 140.405637,357.720587 C138.111876,361.513998 135.28903,364.961563 132.022164,367.959392 C130.809964,368.815092 129.278919,369.085767 127.846488,368.697613 C126.494252,368.166908 125.361963,367.193868 124.634429,365.937309 C124.176076,363.476302 124.176076,360.951911 124.634429,358.490905 C125.117101,355.589551 125.804046,352.725845 126.690147,349.921121 C127.610937,346.989635 128.595968,344.13304 129.64524,341.351338 C130.694513,338.569635 131.486821,336.0875 132.022164,333.904934 Z M149.303039,337.788618 C149.303039,337.628136 149.303039,337.788618 149.303039,337.788618 L149.110316,338.719419 L149.303039,337.788618 Z" id="Shape" fill="#FFFFFF" fill-rule="nonzero"></path>
                <path d="M198.929344,331.78656 C200.385478,329.860766 201.638181,329.047653 202.687453,329.347221 C203.747432,329.63609 204.261362,330.631084 204.261362,332.300105 C203.533295,336.066103 202.848056,339.660918 202.205644,343.084552 C201.563233,346.508186 201.081424,349.514565 200.760218,352.103688 C200.459931,354.229487 200.373845,356.380028 200.503253,358.523001 C200.503253,360.159926 201.209906,360.994437 202.205644,361.090727 L202.205644,361.090727 C203.627901,361.53636 205.134224,361.646229 206.606165,361.411692 C208.464901,361.173112 210.287727,360.709663 212.034544,360.03154 C213.953384,359.302021 215.811466,358.42197 217.591405,357.399622 C219.368218,356.400336 221.027419,355.205313 222.537975,353.836902 C223.252053,353.635214 224.008097,353.635214 224.722175,353.836902 C225.301809,353.965831 225.828397,354.268112 226.231843,354.70351 C226.603061,355.141767 226.797718,355.702417 226.777893,356.276242 C226.752814,356.972492 226.452491,357.630401 225.942757,358.105746 C220.893825,362.036819 215.341239,365.275205 209.432776,367.734716 C205.993816,369.252575 202.221802,369.86051 198.479656,369.500028 C195.969719,369.187164 193.773057,367.663845 192.601589,365.423763 C191.421665,363.037173 190.921607,360.372194 191.156163,357.720587 C191.488045,352.916176 192.460248,348.177531 194.047015,343.630194 C195.524562,339.564629 197.152005,335.616751 198.929344,331.78656 Z M209.753982,303.862546 C210.286698,304.536789 210.560171,305.379368 210.524876,306.237692 C210.495245,307.006864 210.225708,307.747536 209.753982,308.356066 C209.296226,308.939837 208.627063,309.320283 207.890988,309.415252 C206.990608,309.51487 206.085492,309.274449 205.353462,308.741224 C204.549169,308.357525 203.976277,307.613479 203.811262,306.73829 C203.646248,305.863101 203.908907,304.961751 204.518326,304.311898 C205.087168,303.675705 205.858992,303.256056 206.702526,303.124325 C207.776415,302.977702 208.86613,303.24133 209.753982,303.862546 Z" id="Shape" fill="#FFFFFF" fill-rule="nonzero"></path>
                <path d="M259.50877,293.944707 C258.460306,298.298613 257.151724,302.585837 255.590058,306.783334 C253.706792,311.854844 251.562561,316.825739 249.165941,321.676141 C246.863168,326.54682 244.211689,331.245117 241.232156,335.734438 C238.699398,339.634785 235.57905,343.120899 231.981427,346.069533 C231.981427,347.417589 232.174151,348.733548 232.238392,350.081604 C232.333946,351.402999 232.592881,352.707486 233.009286,353.965289 C233.404259,355.18765 233.977926,356.344941 234.711677,357.399622 C235.51043,358.506593 236.540719,359.426588 237.731012,360.095733 C242.525236,359.261006 247.121922,357.541259 251.2859,355.024475 C255.345848,352.527231 258.996829,349.420264 262.110537,345.81276 C262.671375,345.348135 263.373617,345.087821 264.102014,345.074539 C264.70999,345.058251 265.307009,345.238348 265.804405,345.588084 C266.256927,345.913741 266.594331,346.374516 266.768022,346.904044 C266.985896,347.527516 266.985896,348.206366 266.768022,348.829838 C265.00533,351.102371 263.084009,353.247493 261.018437,355.249151 C258.734582,357.459994 256.262697,359.468241 253.630702,361.25121 C251.032136,363.023958 248.254551,364.519289 245.343591,365.712633 C242.75108,366.832637 239.943894,367.369549 237.120721,367.285364 C234.490762,367.148005 231.971945,366.181682 229.92571,364.52506 C227.383694,362.273062 225.534522,359.345539 224.593693,356.083662 C223.548685,352.970612 222.922206,349.732628 222.730699,346.454692 C222.495148,342.859876 222.430907,339.564629 222.537975,336.568949 C222.673541,333.346087 222.973724,330.132245 223.437352,326.939979 C223.929867,323.302367 224.63652,319.525671 225.55731,315.60989 C226.501632,311.578588 227.6705,307.603123 229.058454,303.702063 C230.43987,299.783567 232.114884,295.974685 234.069266,292.307782 C235.845869,288.869535 238.00055,285.63993 240.493383,282.678811 C242.790812,280.051778 245.557461,277.874944 248.652012,276.259498 C250.569423,275.049486 252.933896,274.777775 255.076129,275.521277 C256.863216,275.945446 258.383123,277.113731 259.251805,278.730933 C260.135476,280.330504 260.651205,282.106793 260.761473,283.930577 C260.865302,285.689319 260.779149,287.454121 260.504508,289.194415 C260.119061,291.120209 259.787148,292.703639 259.50877,293.944707 Z M240.236418,304.215608 C235.058558,314.889283 232.211793,326.54135 231.885066,338.398453 C233.442265,336.396993 234.797905,334.246793 235.93226,331.97914 C237.067187,329.689585 238.137873,327.410728 239.144318,325.142571 C240.150763,322.874413 241.382052,320.039216 242.838186,316.63698 C244.208664,313.298937 245.514901,309.832508 246.756897,306.237692 C247.998893,302.642877 249.069579,299.112254 249.968956,295.645825 C250.678783,292.585574 250.981188,289.445074 250.868332,286.305723 C250.418644,286.819269 249.968956,287.36491 249.487147,287.942648 L248.105962,289.70796 C246.372701,291.862011 244.895947,294.210126 243.705441,296.705012 L240.236418,304.215608 Z" id="Shape" fill="#FFFFFF" fill-rule="nonzero"></path>
                <path d="M264.037772,330.021249 C264.097978,329.324105 264.447413,328.683953 265.00139,328.255938 C265.485522,327.869725 266.084358,327.655208 266.703781,327.646103 C267.288965,327.649565 267.859638,327.828465 268.341931,328.159648 C268.882304,328.553055 269.250376,329.139232 269.36979,329.796573 C269.465003,331.939758 269.379043,334.087149 269.112825,336.215887 C268.834447,338.355658 268.609602,340.495429 268.438293,342.6352 C268.266983,344.774971 268.149207,346.914743 268.084966,349.054514 C268.030978,351.210966 268.23587,353.36611 268.695257,355.473827 C271.281091,353.63642 273.530385,351.367093 275.344219,348.765645 C276.934555,346.399619 278.290042,343.884167 279.391412,341.255048 C280.503551,338.592428 281.46862,335.870826 282.282265,333.10252 C283.157153,330.21817 284.230394,327.397657 285.494324,324.661122 C286.080525,323.797283 286.891145,323.109326 287.839127,322.671135 C288.666162,322.265738 289.586554,322.088446 290.505135,322.15759 C292.424603,322.354186 293.996303,323.768956 294.391726,325.656116 C294.667855,329.159917 294.667855,332.679989 294.391726,336.18379 C294.122813,339.729035 294.037045,343.285778 294.134761,346.839851 L294.134761,349.856928 C296.511685,348.594463 298.952849,347.449685 301.458255,346.422595 C303.972137,345.378247 306.559467,344.520024 309.199316,343.85487 C310.32737,343.581805 311.477571,343.409941 312.636219,343.341325 C313.78825,343.249373 314.947583,343.335987 316.073122,343.598097 C316.997671,343.795815 317.825772,344.305907 318.417924,345.042443 C319.031289,346.003431 319.127558,347.205893 318.674889,348.2521 C318.352327,349.31942 317.418866,350.088038 316.308782,350.200367 C315.198697,350.312697 314.129982,349.746679 313.599837,348.765645 L312.636219,348.765645 C309.303379,349.508811 306.069239,350.639914 303.000043,352.135784 C300.009074,353.597326 297.102907,355.226134 294.295364,357.014463 C294.466674,364.953014 294.306071,372.741781 293.813556,380.380764 C293.238835,388.352613 291.596755,396.211432 288.931227,403.747066 C287.94839,406.404922 286.756192,408.98072 285.365841,411.450242 C283.961931,414.015851 282.162565,416.344612 280.033824,418.351004 C277.963852,420.298316 275.483252,421.757047 272.774572,422.619848 C269.777727,423.513638 266.584929,423.513638 263.588084,422.619848 C261.416734,422.040882 259.420532,420.938833 257.774258,419.410191 C256.106144,417.893243 254.695865,416.115451 253.598582,414.146354 C252.505489,412.206154 251.694338,410.120356 251.189538,407.951716 C250.723361,405.845032 250.614781,403.675046 250.868332,401.532402 C251.210932,396.501318 252.293232,391.548089 254.080391,386.832174 C255.840926,382.41064 258.220127,378.260958 261.14692,374.507092 C264.161029,370.656805 267.610077,367.167256 271.425507,364.107804 C275.487068,360.837133 279.781122,357.865724 284.273742,355.217055 L284.273742,352.392557 C284.273742,351.42966 284.273742,350.498859 284.273742,349.568059 C284.273742,349.568059 284.273742,349.568059 284.273742,349.568059 C283.46002,350.894717 282.614178,352.232074 281.736215,353.58013 C280.868355,354.917204 279.782672,356.099713 278.524157,357.078656 L272.357004,361.090727 C271.468702,361.659878 270.453772,362.00161 269.40191,362.08572 C268.38418,362.173165 267.359117,362.064197 266.382575,361.764755 C265.412291,361.465035 264.522706,360.949242 263.780808,360.256216 C263.020014,359.569329 262.473552,358.677813 262.206899,357.688491 C261.569188,355.41311 261.287481,353.052864 261.371764,350.691439 C261.457124,348.358404 261.682372,346.032581 262.046296,343.726484 C262.410329,341.436928 262.795776,339.115277 263.202637,336.761528 C263.627359,334.535299 263.906329,332.283761 264.037772,330.021249 Z M283.759812,380.380764 C284.116999,377.580177 284.320733,374.762175 284.370103,371.939367 C284.370103,369.136267 284.370103,366.354564 284.370103,363.594259 C281.581318,365.644044 278.921018,367.862875 276.404198,370.238249 C273.943928,372.572234 271.6573,375.082426 269.562513,377.748846 C266.926973,381.223619 264.766586,385.033851 263.138396,389.078934 C261.613754,393.066811 260.724976,397.269107 260.504508,401.532402 C260.537038,402.818451 260.698448,404.098007 260.986317,405.351894 C261.297514,406.885389 261.827564,408.366259 262.560225,409.749124 C263.249816,411.017155 264.215831,412.114078 265.386837,412.958781 C266.609065,413.79738 268.151227,414.022604 269.562513,413.568615 C270.878921,413.221071 272.070301,412.509002 272.999416,411.514435 C273.994537,410.487683 274.847928,409.332689 275.536942,408.080102 C276.226717,406.829186 276.827778,405.531436 277.335695,404.196418 C277.817504,402.848362 278.267192,401.724982 278.620518,400.826278 C279.152125,399.536285 279.6132,398.218384 280.001704,396.8784 L281.093804,392.930522 C281.421436,392.026024 281.700216,391.104596 281.928939,390.170217 C282.207317,389.078934 282.464282,387.955554 282.699833,386.800078 C282.935384,385.644601 283.160228,384.499824 283.374365,383.365745 C283.561848,382.378096 283.701202,381.381928 283.791933,380.380764 L283.759812,380.380764 Z" id="Shape" fill="#FFFFFF" fill-rule="nonzero"></path>
            </g>
        </g>
    </g>
</svg>