<svg version="1.1" viewBox="0 0 33 32"
    xmlns="http://www.w3.org/2000/svg"
    xmlns:xlink="http://www.w3.org/1999/xlink">
    <!-- <symbol id="icon-inCart" > -->
        <title>inCart</title>
        <path d="M19.446 15.59c-0.482 0-0.937-0.227-1.23-0.616l-3.955-5.255c-0.514-0.684-0.38-1.657 0.299-2.175 0.68-0.518 1.647-0.382 2.162 0.301l2.601 3.456 6.542-10.569c0.45-0.727 1.401-0.95 2.126-0.497s0.944 1.411 0.494 2.138l-7.728 12.485c-0.268 0.434-0.732 0.707-1.239 0.73-0.024 0.001-0.047 0.001-0.070 0.001z"></path>
        <path d="M32.638 13.579c-5.28 11.146-6.998 11.146-8.023 11.146h-10.099c-3.537 0-6.247-2.073-6.905-5.284-0.020-0.098-2.020-9.88-2.531-12.613-0.251-1.34-0.89-2.233-3.187-2.233-1.046 0-1.893-0.844-1.893-1.887s0.847-1.887 1.893-1.887c3.812 0 6.266 1.887 6.91 5.314 0.506 2.704 2.499 12.453 2.52 12.552 0.403 1.97 2.174 2.265 3.194 2.265h9.6c1.031-1.105 3.382-5.361 5.097-8.984 0.447-0.942 1.577-1.344 2.521-0.901 0.947 0.444 1.351 1.569 0.904 2.512zM13.024 25.764c-1.727 0-3.126 1.396-3.126 3.118s1.399 3.118 3.126 3.118c1.727 0 3.126-1.396 3.126-3.118s-1.399-3.118-3.126-3.118zM24.485 25.764c-1.727 0-3.126 1.396-3.126 3.118s1.399 3.118 3.126 3.118c1.727 0 3.126-1.396 3.126-3.118s-1.399-3.118-3.126-3.118z"></path>
    <!-- </symbol> -->
</svg>