<svg version="1.1" viewBox="0 0 32 32"
    xmlns="http://www.w3.org/2000/svg"
    xmlns:xlink="http://www.w3.org/1999/xlink">
    <title>instagram</title>
    <path fill="#bcbcbc" style="fill: var(--color2, #bcbcbc)" d="M23.041 0h-14.259c-4.842 0-8.782 3.94-8.782 8.782v14.259c0 4.843 3.94 8.782 8.782 8.782h14.259c4.843 0 8.782-3.94 8.782-8.782v-14.259c0-4.842-3.94-8.782-8.782-8.782z"></path>
    <path fill="#fff" style="fill: var(--color3, #fff)" d="M15.912 7.712c-4.522 0-8.2 3.678-8.2 8.2s3.678 8.2 8.2 8.2 8.2-3.678 8.2-8.2c0-4.522-3.678-8.2-8.2-8.2zM15.912 21.288c-2.965 0-5.377-2.412-5.377-5.376s2.412-5.377 5.377-5.377 5.377 2.412 5.377 5.377c0 2.965-2.412 5.376-5.377 5.376z"></path>
    <path fill="#fff" style="fill: var(--color3, #fff)" d="M25.585 5.318c-0.841 0-1.667 0.34-2.26 0.937-0.597 0.593-0.94 1.42-0.94 2.263 0 0.841 0.343 1.667 0.94 2.263 0.593 0.593 1.42 0.937 2.26 0.937 0.844 0 1.667-0.343 2.263-0.937 0.596-0.596 0.937-1.423 0.937-2.263 0-0.844-0.34-1.67-0.937-2.263-0.593-0.596-1.42-0.937-2.263-0.937z"></path>
</svg>