
<svg width="3px" height="5px" viewBox="0 0 3 5" version="1.1" xmlns="http://www.w3.org/2000/svg" xmlns:xlink="http://www.w3.org/1999/xlink">
    <!-- Generator: Sketch 44.1 (41455) - http://www.bohemiancoding.com/sketch -->
    <title>Shape Copy 2</title>
    <desc>Created with Sketch.</desc>
    <defs></defs>
    <g id="2v" stroke="none" stroke-width="1" fill="none" fill-rule="evenodd">
        <g id="JoinUP!-to-travel-2" transform="translate(-817.000000, -5692.000000)" fill="#9B9B9B">
            <g id="Элементы-брендинга" transform="translate(-120.000000, 4943.000000)">
                <g id="Элементы" transform="translate(245.000000, 431.000000)">
                    <g id="элементы">
                        <g id="ховер" transform="translate(420.000000, 0.000000)">
                            <path d="M273.321582,321.996754 C273.23825,321.996754 273.154929,321.965023 273.091396,321.901695 L271.092138,319.907901 C270.964959,319.781071 270.964959,319.575437 271.092138,319.448659 C271.219266,319.32188 271.425423,319.32188 271.552612,319.448659 L273.321582,321.212878 L275.090562,319.44872 C275.217741,319.321941 275.423878,319.321941 275.550995,319.44872 C275.678236,319.575499 275.678236,319.781132 275.550995,319.907962 L273.551768,321.901757 C273.488204,321.965095 273.404883,321.996754 273.321582,321.996754 Z" id="Shape-Copy-2" transform="translate(273.321590, 320.675164) rotate(90.000000) translate(-273.321590, -320.675164) "></path>
                        </g>
                    </g>
                </g>
            </g>
        </g>
    </g>
</svg>