<?xml version="1.0" encoding="UTF-8"?>
<svg width="3px" height="5px" viewBox="0 0 3 5" version="1.1" xmlns="http://www.w3.org/2000/svg" xmlns:xlink="http://www.w3.org/1999/xlink">
    <!-- Generator: Sketch 44.1 (41455) - http://www.bohemiancoding.com/sketch -->
    <title>Shape</title>
    <desc>Created with Sketch.</desc>
    <defs></defs>
    <g id="2v" stroke="none" stroke-width="1" fill="none" fill-rule="evenodd">
        <g id="JoinUP!-to-travel-2" transform="translate(-845.000000, -5692.000000)" fill="#9B9B9B">
            <g id="Элементы-брендинга" transform="translate(-120.000000, 4943.000000)">
                <g id="Элементы" transform="translate(245.000000, 431.000000)">
                    <g id="элементы">
                        <g id="ховер" transform="translate(420.000000, 0.000000)">
                            <path d="M301.321582,321.996754 C301.23825,321.996754 301.154929,321.965023 301.091396,321.901695 L299.092138,319.907901 C298.964959,319.781071 298.964959,319.575437 299.092138,319.448659 C299.219266,319.32188 299.425423,319.32188 299.552612,319.448659 L301.321582,321.212878 L303.090562,319.44872 C303.217741,319.321941 303.423878,319.321941 303.550995,319.44872 C303.678236,319.575499 303.678236,319.781132 303.550995,319.907962 L301.551768,321.901757 C301.488204,321.965095 301.404883,321.996754 301.321582,321.996754 Z" id="Shape" transform="translate(301.321590, 320.675164) scale(-1, 1) rotate(90.000000) translate(-301.321590, -320.675164) "></path>
                        </g>
                    </g>
                </g>
            </g>
        </g>
    </g>
</svg>