<svg version="1.1" viewBox="0 0 35 32"
    xmlns="http://www.w3.org/2000/svg"
    xmlns:xlink="http://www.w3.org/1999/xlink">
    <title>inCart</title>
    <path d="M11.851 14.283h-4.609c-0.549 0-1.015-0.208-1.399-0.624s-0.576-0.922-0.576-1.516v-0.713c0-1.576 0.514-2.921 1.543-4.036s2.27-1.672 3.724-1.672h1.317c0.357 0 0.665-0.141 0.926-0.424s0.391-0.617 0.391-1.003v-2.854c0-0.386-0.13-0.721-0.391-1.004s-0.569-0.424-0.926-0.424h-1.317c-1.427 0-2.788 0.301-4.084 0.903s-2.417 1.416-3.364 2.442c-0.946 1.025-1.697 2.24-2.253 3.645s-0.833 2.88-0.833 4.426v15.696c0 1.19 0.384 2.2 1.152 3.033s1.701 1.248 2.798 1.248h7.901c1.097 0 2.030-0.416 2.798-1.248s1.152-1.843 1.152-3.033v-8.561c0-1.189-0.384-2.2-1.153-3.033s-1.701-1.248-2.798-1.248z"></path>
    <path d="M33.085 15.531c-0.768-0.832-1.701-1.248-2.798-1.248h-4.609c-0.548 0-1.015-0.208-1.399-0.624s-0.576-0.922-0.576-1.516v-0.713c0-1.576 0.514-2.921 1.543-4.036s2.27-1.672 3.724-1.672h1.316c0.357 0 0.665-0.141 0.926-0.424s0.391-0.617 0.391-1.003v-2.854c0-0.386-0.131-0.721-0.391-1.004s-0.569-0.424-0.926-0.424h-1.316c-1.427 0-2.788 0.301-4.085 0.903s-2.417 1.416-3.363 2.442c-0.947 1.025-1.698 2.24-2.253 3.645s-0.834 2.88-0.834 4.426v15.696c0 1.19 0.384 2.2 1.152 3.033s1.701 1.248 2.798 1.248h7.901c1.097 0 2.030-0.416 2.798-1.248s1.152-1.843 1.152-3.033v-8.561c0-1.19-0.383-2.2-1.151-3.033z"></path>
</svg>