<svg class="map__svg" width="33px" height="45px" viewBox="0 0 33 45" version="1.1"
    xmlns="http://www.w3.org/2000/svg"
    xmlns:xlink="http://www.w3.org/1999/xlink">
    <!-- Generator: Sketch 45.2 (43514) - http://www.bohemiancoding.com/sketch -->
    <title>Открыто</title>
    <desc>Created with Sketch.</desc>
    <defs></defs>
    <g id="Map-icons" stroke="none" stroke-width="1" fill="none" fill-rule="evenodd">
        <g id="icons" transform="translate(-185.000000, -201.000000)" fill="#FF8000">
            <g id="Открыто" transform="translate(172.000000, 201.000000)">
                <g id="Group-39" transform="translate(13.813559, 0.000000)">
                    <path d="M15.6886514,45 C9.68942783,35.7357248 0.0364775239,25.1259105 0.0364775239,16.1864055 C0.0364775239,7.24690061 7.04419448,0 15.6886514,0 C24.3331084,0 31.3408254,7.24690061 31.3408254,16.1864055 C31.3408254,25.1259105 21.4161359,35.7877498 15.6886514,45 Z M15.6886514,24.2608696 C20.0108799,24.2608696 23.5147384,20.7570111 23.5147384,16.4347826 C23.5147384,12.1125541 20.0108799,8.60869565 15.6886514,8.60869565 C11.366423,8.60869565 7.86256448,12.1125541 7.86256448,16.4347826 C7.86256448,20.7570111 11.366423,24.2608696 15.6886514,24.2608696 Z" id="Открыто"></path>
                </g>
            </g>
        </g>
    </g>
</svg>