<svg version="1.1" viewBox="0 0 30 32"
    xmlns="http://www.w3.org/2000/svg"
    xmlns:xlink="http://www.w3.org/1999/xlink">
    <title>phone</title>
    <path d="M29.852 23.615c0.063 0.486-0.084 0.908-0.443 1.267l-4.205 4.181c-0.19 0.211-0.437 0.391-0.743 0.538s-0.606 0.243-0.901 0.285c-0.021 0-0.084 0.005-0.19 0.016s-0.242 0.016-0.411 0.016c-0.401 0-1.049-0.069-1.945-0.206s-1.992-0.475-3.288-1.014c-1.297-0.538-2.767-1.346-4.411-2.423s-3.394-2.555-5.249-4.434c-1.476-1.457-2.698-2.851-3.668-4.181s-1.75-2.56-2.34-3.69c-0.59-1.13-1.033-2.154-1.328-3.072s-0.495-1.71-0.601-2.375c-0.105-0.665-0.148-1.188-0.126-1.568s0.032-0.591 0.032-0.633c0.042-0.296 0.137-0.596 0.285-0.903s0.327-0.554 0.537-0.744l4.205-4.212c0.295-0.296 0.632-0.443 1.012-0.443 0.274 0 0.516 0.079 0.727 0.238s0.39 0.354 0.537 0.586l3.383 6.429c0.19 0.338 0.242 0.707 0.158 1.109s-0.263 0.739-0.537 1.014l-1.549 1.552c-0.042 0.042-0.079 0.111-0.111 0.206s-0.047 0.174-0.047 0.238c0.084 0.443 0.274 0.95 0.569 1.52 0.253 0.507 0.643 1.124 1.17 1.853s1.275 1.568 2.245 2.518c0.949 0.971 1.792 1.726 2.529 2.265s1.354 0.934 1.85 1.188 0.875 0.406 1.138 0.459l0.395 0.079c0.042 0 0.111-0.016 0.206-0.047s0.163-0.069 0.206-0.111l1.802-1.837c0.38-0.338 0.822-0.507 1.328-0.507 0.358 0 0.643 0.063 0.854 0.19h0.032l6.102 3.611c0.443 0.275 0.706 0.623 0.791 1.045z"></path>
</svg>