<svg version="1.1" viewBox="0 0 31 32"
    xmlns="http://www.w3.org/2000/svg"
    xmlns:xlink="http://www.w3.org/1999/xlink">
    <title>professor-consultation</title>
    <path d="M30.635 31.939c-0.289 0-0.562-0.175-0.676-0.463l-1.815-4.594c-0.932-2.323-2.005-3.496-3.497-3.771l-0.379 1.83 0.525 4.773c0.027 0.25-0.073 0.497-0.267 0.655l-1.171 0.951c-0.129 0.105-0.29 0.162-0.456 0.162h-0.415c-0.166 0-0.326-0.057-0.456-0.162l-1.171-0.951c-0.194-0.158-0.295-0.405-0.267-0.655l0.525-4.773-0.379-1.83c-1.492 0.275-2.565 1.448-3.499 3.775l-1.843 4.594c-0.151 0.376-0.575 0.558-0.948 0.405s-0.552-0.582-0.401-0.958l1.843-4.594c0.8-1.992 2.218-4.624 5.341-4.752 0.028-0.003 0.056-0.005 0.084-0.005h2.757c0.028 0 0.056 0.002 0.084 0.005 3.123 0.128 4.541 2.76 5.341 4.752l1.816 4.598c0.149 0.377-0.032 0.805-0.406 0.956-0.088 0.036-0.18 0.053-0.27 0.053zM22.080 29.475l0.611 0.497 0.611-0.497-0.421-3.834h-0.379l-0.422 3.834zM22.441 24.17h0.5l0.233-1.123h-0.965l0.233 1.123zM0.768 31.939c-0.091 0-0.184-0.017-0.273-0.054-0.372-0.153-0.552-0.582-0.401-0.958l1.816-4.526c0.809-2.015 2.259-4.693 5.507-4.693h2.409c1.751 0 3.192 0.787 4.283 2.34 0.018 0.026 0.101 0.14 0.201 0.278 0.348 0.479 0.44 0.608 0.47 0.654 0.222 0.339 0.13 0.795-0.206 1.019-0.334 0.223-0.783 0.132-1.005-0.204-0.039-0.057-0.295-0.409-0.433-0.6-0.108-0.149-0.197-0.272-0.214-0.296-0.503-0.716-1.066-1.199-1.721-1.466l-1.993 2.762c-0.137 0.19-0.355 0.302-0.588 0.302s-0.451-0.112-0.588-0.302l-1.993-2.761c-1.136 0.466-2.008 1.589-2.783 3.521l-1.816 4.526c-0.115 0.286-0.387 0.459-0.674 0.459zM7.659 23.178l0.963 1.334 0.963-1.334h-1.925zM11.556 31.938h-7.737c-0.402 0-0.727-0.329-0.727-0.736s0.326-0.736 0.727-0.736h7.737c0.402 0 0.727 0.329 0.727 0.736s-0.326 0.736-0.727 0.736zM26 26.584c-0.402 0-0.727-0.329-0.727-0.736v-0.092c0-0.406 0.326-0.736 0.727-0.736s0.727 0.329 0.727 0.736v0.092c0 0.406-0.326 0.736-0.727 0.736zM8.622 20.627c-2.035 0-3.691-1.674-3.691-3.733 0-1.695 1.123-3.13 2.657-3.584 0.007-0.002 0.015-0.005 0.023-0.007 0.243-0.070 0.493-0.114 0.746-0.133h0c0.001-0 0.002-0 0.004-0s0.003-0 0.004-0c0.002-0 0.003-0 0.005-0s0.003-0 0.004-0 0.003-0 0.005-0 0.002-0 0.004-0c0.003 0 0.006-0 0.008-0.001v0c0.012-0.001 0.024-0.001 0.036-0.002l0-0c0.004-0 0.008-0 0.012-0.001 0.001 0 0.005-0 0.008-0 0.001 0 0.002 0 0.004-0s0.003-0 0.005-0c0.001-0 0.002-0 0.004-0s0.002-0 0.003-0 0.003-0 0.004-0 0.002-0 0.004-0c0.001-0 0.002-0 0.003-0 0.003-0 0.006 0.001 0.008-0 0.045-0.002 0.090-0.003 0.136-0.003 0.001 0 0.002 0 0.003 0s0.002 0 0.003 0c0 0 0 0 0 0 0.004 0 0.007 0 0.011 0h0c0.002 0 0.004-0 0.006 0s0.004 0 0.006 0c0.002 0 0.004 0 0.006 0 0.001 0 0.002 0 0.002 0 1.809 0.015 3.317 1.332 3.609 3.113 0.033 0.202 0.051 0.409 0.051 0.62 0 2.058-1.656 3.733-3.691 3.733zM7.313 15.062c-0.562 0.411-0.928 1.080-0.928 1.833 0 1.247 1.003 2.262 2.236 2.262 1.045 0 1.925-0.729 2.169-1.71-1.58 0.009-2.939-0.965-3.478-2.384zM8.714 14.635c0.337 0.769 1.081 1.302 1.95 1.338-0.338-0.762-1.081-1.302-1.95-1.338zM22.691 20.457c-2.060 0-3.736-1.695-3.736-3.778s1.676-3.778 3.736-3.778c0.246 0 0.488 0.024 0.721 0.071 0.015 0.003 0.030 0.006 0.046 0.009 1.694 0.359 2.97 1.88 2.97 3.698 0 2.083-1.676 3.778-3.736 3.778zM21.399 14.78c-0.597 0.416-0.989 1.113-0.989 1.9 0 1.272 1.023 2.307 2.281 2.307s2.281-1.035 2.281-2.307c0-0.946-0.567-1.761-1.375-2.117-0.305 0.397-0.687 0.731-1.125 0.979-0.35 0.199-0.794 0.073-0.99-0.281-0.084-0.152-0.11-0.321-0.083-0.481zM5.459 12.766c-0.127 0-0.254-0.034-0.368-0.101-0.223-0.132-0.36-0.374-0.36-0.635v-6.628c0-1.288 1.037-2.336 2.311-2.336h2.581c0.402 0 0.727 0.329 0.727 0.736s-0.326 0.736-0.727 0.736h-2.581c-0.472 0-0.856 0.388-0.856 0.865v5.373l1.002-0.568c0.109-0.062 0.231-0.094 0.356-0.094h6.313c0.402 0 0.727 0.329 0.727 0.736s-0.326 0.736-0.727 0.736h-6.123l-1.919 1.087c-0.111 0.063-0.233 0.094-0.356 0.094zM22.695 11.242c-0.201 0-0.397-0.084-0.538-0.24l-2.239-2.483h-5.882c-1.274 0-2.31-1.048-2.31-2.336v-3.846c0-1.288 1.036-2.336 2.31-2.336h7.076c1.274 0 2.311 1.048 2.311 2.336v8.17c0 0.304-0.184 0.576-0.465 0.686-0.085 0.034-0.174 0.050-0.263 0.050zM14.036 1.471c-0.472 0-0.856 0.388-0.856 0.865v3.846c0 0.477 0.384 0.865 0.856 0.865h6.203c0.205 0 0.4 0.087 0.538 0.24l1.191 1.32v-6.271c0-0.477-0.384-0.865-0.856-0.865h-7.076zM9.478 7.317h-1.32c-0.402 0-0.727-0.329-0.727-0.736s0.326-0.736 0.727-0.736h1.32c0.402 0 0.727 0.329 0.727 0.736s-0.326 0.736-0.727 0.736zM19.841 4.295h-3.003c-0.402 0-0.727-0.329-0.727-0.736s0.326-0.736 0.727-0.736h3.003c0.402 0 0.727 0.329 0.727 0.736s-0.326 0.736-0.727 0.736z"></path>
</svg>