<svg class="map__svg" width="32px" height="45px" viewBox="0 0 32 45" version="1.1"
    xmlns="http://www.w3.org/2000/svg" xmlns:xlink="http://www.w3.org/1999/xlink">
    <!-- Generator: Sketch 45.2 (43514) - http://www.bohemiancoding.com/sketch -->
    <title>Скоро</title>
    <desc>Created with Sketch.</desc>
    <defs></defs>
    <g id="Map-icons" stroke="none" stroke-width="1" fill="none"
        fill-rule="evenodd">
        <g id="icons" transform="translate(-633.000000, -201.000000)"
            fill="#F4B16E">
            <g id="Скоро" transform="translate(619.000000, 201.000000)">
                <g id="Group-39" transform="translate(14.000000, 0.000000)">
                    <path
                        d="M15.6521739,45 C9.65295031,35.7357248 0,25.1259105 0,16.1864055 C0,7.24690061 7.00771696,0 15.6521739,0 C24.2966309,0 31.3043478,7.24690061 31.3043478,16.1864055 C31.3043478,25.1259105 21.3796584,35.7877498 15.6521739,45 Z M15.6521739,8.80434783 C11.3478261,8.80434783 7.82608696,12.326087 7.82608696,16.6304348 C7.82608696,20.9347826 11.3478261,24.4565217 15.6521739,24.4565217 C19.9565217,24.4565217 23.4782609,20.9347826 23.4782609,16.6304348 C23.4782609,12.326087 19.9565217,8.80434783 15.6521739,8.80434783 Z M15.6521739,22.5 C12.423913,22.5 9.7826087,19.8586957 9.7826087,16.6304348 C9.7826087,13.4021739 12.423913,10.7608696 15.6521739,10.7608696 C18.8804348,10.7608696 21.5217391,13.4021739 21.5217391,16.6304348 C21.5217391,19.8586957 18.8804348,22.5 15.6521739,22.5 Z M18.8193697,13.3262003 C17.9690589,12.3985885 16.7322431,11.9347826 15.5727283,11.9347826 L15.5727283,16.5728417 L12.326087,19.8194831 C14.1040096,21.5974058 17.0414471,21.5974058 18.8966707,19.8194831 C20.6745934,18.0415605 20.6745934,15.104123 18.8193697,13.3262003 Z"
                        id="Скоро"></path>
                </g>
            </g>
        </g>
    </g>
</svg>