<svg version="1.1" viewBox="0 0 32 32"
    xmlns="http://www.w3.org/2000/svg"
    xmlns:xlink="http://www.w3.org/1999/xlink">
    <title>store</title>
    <path d="M31.951 6.245c-0.001-0.058-0.007-0.116-0.023-0.173l-0.078 0.022c-0.001-0.002-0.002-0.003-0.003-0.004l0.079-0.023c-0.873-3.207-3.595-5.562-6.86-5.992v-0.075l-17.068 0.001c-3.695 0.006-6.954 2.5-7.923 6.059-0.017 0.059-0.023 0.119-0.024 0.18-0.033 0.075-0.052 0.158-0.052 0.245v25.515h32v-25.515c0-0.085-0.018-0.166-0.049-0.241zM24.496 1.088c2.865 0.203 5.319 2.101 6.253 4.779h-6.858c-0.5-2.063-1.809-3.77-3.553-4.8h3.649l0.509 0.021zM22.933 7.467c0 1.765-1.435 3.2-3.2 3.2s-3.2-1.435-3.2-3.2v-0.533h6.4v0.533zM9.067 6.933h6.4v0.533c0 1.765-1.435 3.2-3.2 3.2s-3.2-1.435-3.2-3.2v-0.533zM16.533 1.067c2.939 0.042 5.471 2.013 6.262 4.799h-6.262v-4.799zM15.467 5.867h-6.262c0.791-2.786 3.323-4.757 6.262-4.799v4.799zM8.012 1.067h3.649c-1.744 1.030-3.052 2.737-3.553 4.8h-6.856c0.994-2.845 3.701-4.794 6.76-4.8zM1.067 6.933h6.933v0.533c0 1.765-1.435 3.2-3.2 3.2h-0.533c-1.765 0-3.2-1.435-3.2-3.2v-0.533zM28.8 23.467h-6.933v-5.6c0-1.911 1.555-3.467 3.467-3.467s3.467 1.555 3.467 3.467v5.6zM21.867 30.933v-6.4h6.933v6.4h-6.933zM30.933 10.286v20.647h-1.067v-13.067c0-2.5-2.034-4.533-4.533-4.533s-4.533 2.034-4.533 4.533v10.933c-0.295 0-0.533 0.238-0.533 0.533s0.238 0.533 0.533 0.533v0.533h-0.533c-0.295 0-0.533 0.238-0.533 0.533h-0.533c0-0.295-0.238-0.533-0.533-0.533h-0.533c-0.295 0-0.533 0.238-0.533 0.533h-0.533c0-0.295-0.238-0.533-0.533-0.533h-0.533c-0.295 0-0.533 0.238-0.533 0.533h-0.533c0-0.295-0.238-0.533-0.533-0.533h-0.533c-0.295 0-0.533 0.238-0.533 0.533h-0.533c0-0.295-0.238-0.533-0.533-0.533h-0.533c-0.295 0-0.533 0.238-0.533 0.533h-0.533c0-0.295-0.238-0.533-0.533-0.533h-0.533c-0.295 0-0.533 0.238-0.533 0.533h-0.533c0-0.295-0.238-0.533-0.533-0.533h-0.533c-0.295 0-0.533 0.238-0.533 0.533h-0.533c0-0.295-0.238-0.533-0.533-0.533h-0.533c-0.295 0-0.533 0.238-0.533 0.533h-0.533c0-0.295-0.238-0.533-0.533-0.533h-0.533c-0.295 0-0.533 0.238-0.533 0.533h-0.533c0-0.295-0.238-0.533-0.533-0.533h-0.533v-20.114c0.027 0.030 0.058 0.058 0.085 0.087 0.054 0.058 0.11 0.116 0.167 0.171 0.046 0.044 0.093 0.086 0.141 0.129 0.060 0.052 0.121 0.103 0.183 0.152 0.050 0.039 0.101 0.077 0.153 0.115 0.065 0.046 0.131 0.090 0.198 0.133 0.054 0.034 0.108 0.068 0.163 0.099 0.070 0.040 0.142 0.077 0.215 0.114 0.056 0.028 0.112 0.057 0.17 0.082 0.076 0.034 0.154 0.063 0.232 0.093 0.058 0.022 0.115 0.044 0.173 0.063 0.084 0.027 0.169 0.049 0.254 0.071 0.057 0.014 0.112 0.031 0.17 0.044 0.097 0.021 0.195 0.035 0.293 0.049 0.049 0.007 0.097 0.017 0.147 0.022 0.15 0.015 0.301 0.025 0.454 0.025h0.533c0.18 0 0.357-0.015 0.531-0.037 0.050-0.006 0.1-0.015 0.149-0.023 0.132-0.021 0.261-0.049 0.388-0.082 0.044-0.011 0.089-0.021 0.132-0.034 0.164-0.048 0.324-0.104 0.479-0.171 0.024-0.010 0.046-0.023 0.069-0.034 0.132-0.060 0.26-0.126 0.385-0.198 0.043-0.025 0.085-0.051 0.127-0.077 0.113-0.071 0.222-0.147 0.327-0.228 0.029-0.022 0.060-0.043 0.089-0.067 0.13-0.105 0.253-0.217 0.369-0.335 0.026-0.027 0.050-0.055 0.076-0.083 0.090-0.097 0.175-0.198 0.257-0.302 0.030-0.039 0.060-0.079 0.089-0.119 0.084-0.117 0.162-0.237 0.233-0.362 0.010-0.018 0.023-0.034 0.033-0.051 0.010 0.018 0.023 0.034 0.033 0.051 0.071 0.125 0.15 0.245 0.233 0.362 0.029 0.041 0.059 0.080 0.089 0.119 0.081 0.105 0.166 0.206 0.257 0.302 0.026 0.028 0.049 0.057 0.076 0.083 0.116 0.119 0.239 0.231 0.369 0.335 0.029 0.023 0.060 0.044 0.089 0.067 0.106 0.081 0.214 0.157 0.327 0.228 0.042 0.026 0.084 0.052 0.127 0.077 0.124 0.072 0.252 0.139 0.385 0.198 0.023 0.011 0.046 0.023 0.069 0.034 0.155 0.067 0.315 0.123 0.479 0.171 0.044 0.013 0.088 0.022 0.132 0.034 0.127 0.033 0.257 0.060 0.388 0.082 0.050 0.008 0.099 0.017 0.149 0.023 0.173 0.022 0.35 0.037 0.53 0.037s0.357-0.015 0.531-0.037c0.050-0.006 0.1-0.015 0.149-0.023 0.132-0.021 0.261-0.049 0.388-0.082 0.044-0.011 0.089-0.021 0.132-0.034 0.164-0.048 0.324-0.104 0.479-0.171 0.024-0.010 0.046-0.023 0.069-0.034 0.132-0.060 0.26-0.126 0.385-0.198 0.043-0.025 0.085-0.051 0.127-0.077 0.113-0.071 0.222-0.147 0.327-0.228 0.029-0.022 0.060-0.043 0.089-0.067 0.13-0.105 0.253-0.217 0.369-0.335 0.026-0.027 0.050-0.055 0.076-0.083 0.090-0.097 0.175-0.198 0.257-0.302 0.030-0.039 0.060-0.079 0.089-0.119 0.084-0.117 0.162-0.237 0.233-0.362 0.010-0.018 0.023-0.034 0.033-0.051 0.010 0.018 0.023 0.034 0.033 0.051 0.071 0.125 0.15 0.245 0.233 0.362 0.029 0.041 0.059 0.080 0.089 0.119 0.081 0.105 0.166 0.206 0.257 0.302 0.026 0.028 0.049 0.057 0.076 0.083 0.116 0.119 0.239 0.231 0.369 0.335 0.029 0.023 0.060 0.044 0.089 0.067 0.106 0.081 0.214 0.157 0.327 0.228 0.042 0.026 0.084 0.052 0.127 0.077 0.124 0.072 0.252 0.139 0.385 0.198 0.023 0.011 0.046 0.023 0.069 0.034 0.155 0.067 0.315 0.123 0.479 0.171 0.044 0.013 0.088 0.022 0.132 0.034 0.127 0.033 0.257 0.060 0.388 0.082 0.050 0.008 0.099 0.017 0.149 0.023 0.173 0.022 0.35 0.037 0.53 0.037s0.357-0.015 0.531-0.037c0.050-0.006 0.1-0.015 0.149-0.023 0.132-0.021 0.261-0.049 0.388-0.082 0.044-0.011 0.089-0.021 0.132-0.034 0.164-0.048 0.324-0.104 0.479-0.171 0.024-0.010 0.046-0.023 0.069-0.034 0.132-0.060 0.26-0.126 0.385-0.198 0.043-0.025 0.085-0.051 0.127-0.077 0.113-0.071 0.222-0.147 0.327-0.228 0.029-0.022 0.060-0.043 0.089-0.067 0.13-0.105 0.253-0.217 0.369-0.335 0.026-0.027 0.050-0.055 0.076-0.083 0.090-0.097 0.175-0.198 0.257-0.302 0.030-0.039 0.060-0.079 0.089-0.119 0.084-0.117 0.162-0.237 0.233-0.362 0.010-0.018 0.023-0.034 0.033-0.051 0.010 0.018 0.023 0.034 0.033 0.051 0.071 0.125 0.15 0.245 0.233 0.362 0.029 0.041 0.059 0.080 0.089 0.119 0.081 0.105 0.166 0.206 0.257 0.302 0.026 0.028 0.049 0.057 0.076 0.083 0.116 0.119 0.239 0.231 0.369 0.335 0.029 0.023 0.060 0.044 0.089 0.067 0.106 0.081 0.214 0.157 0.327 0.228 0.042 0.026 0.084 0.052 0.127 0.077 0.124 0.072 0.252 0.139 0.385 0.198 0.023 0.011 0.046 0.023 0.069 0.034 0.155 0.067 0.315 0.123 0.479 0.171 0.044 0.013 0.088 0.022 0.132 0.034 0.127 0.033 0.257 0.060 0.388 0.082 0.050 0.008 0.099 0.017 0.149 0.023 0.173 0.022 0.35 0.037 0.53 0.037h0.533c0.154 0 0.305-0.009 0.454-0.025 0.050-0.005 0.098-0.015 0.147-0.022 0.099-0.014 0.197-0.028 0.293-0.049 0.058-0.012 0.113-0.029 0.17-0.044 0.085-0.022 0.171-0.044 0.254-0.071 0.059-0.019 0.116-0.042 0.173-0.063 0.078-0.029 0.156-0.059 0.232-0.093 0.058-0.026 0.114-0.054 0.17-0.082 0.073-0.036 0.145-0.073 0.215-0.114 0.055-0.031 0.109-0.065 0.163-0.099 0.067-0.043 0.133-0.086 0.198-0.133 0.052-0.037 0.103-0.076 0.154-0.115 0.062-0.049 0.123-0.099 0.182-0.151 0.048-0.042 0.095-0.084 0.141-0.129 0.058-0.055 0.113-0.113 0.167-0.171 0.028-0.029 0.059-0.056 0.086-0.086zM27.733 10.667h-0.533c-1.765 0-3.2-1.435-3.2-3.2v-0.533h6.933v0.533c0 1.765-1.435 3.2-3.2 3.2z"></path>
    <path d="M2.133 28.267h17.6v-14.933h-17.6v14.933zM3.2 14.4h15.467v12.8h-15.467v-12.8z"></path>
    <path d="M8 20.267c0.137 0 0.273-0.052 0.377-0.156l2.133-2.133c0.209-0.209 0.209-0.546 0-0.754s-0.546-0.209-0.754 0l-2.133 2.133c-0.209 0.209-0.209 0.546 0 0.754 0.104 0.104 0.241 0.156 0.377 0.156z"></path>
    <path d="M8 22.933c0.137 0 0.273-0.052 0.377-0.156l1.067-1.067c0.209-0.209 0.209-0.546 0-0.754s-0.546-0.209-0.754 0l-1.067 1.067c-0.209 0.209-0.209 0.546 0 0.754 0.104 0.104 0.241 0.156 0.377 0.156z"></path>
    <path d="M9.755 19.888c-0.097 0.101-0.155 0.24-0.155 0.379s0.058 0.277 0.155 0.379c0.101 0.096 0.24 0.155 0.379 0.155s0.277-0.059 0.379-0.155c0.096-0.101 0.155-0.24 0.155-0.379s-0.059-0.278-0.155-0.379c-0.197-0.197-0.56-0.197-0.757 0z"></path>
    <path d="M10.823 19.577c0.104 0.104 0.241 0.156 0.377 0.156s0.273-0.052 0.377-0.156l1.6-1.6c0.209-0.209 0.209-0.546 0-0.754s-0.546-0.209-0.754 0l-1.6 1.6c-0.209 0.209-0.209 0.546 0 0.754z"></path>
    <path d="M12.423 19.89l-4.8 4.8c-0.209 0.209-0.209 0.546 0 0.754 0.104 0.104 0.241 0.156 0.377 0.156s0.273-0.052 0.377-0.156l4.8-4.8c0.209-0.209 0.209-0.546 0-0.754s-0.546-0.209-0.754 0z"></path>
    <path d="M13.488 18.821c-0.097 0.101-0.155 0.234-0.155 0.379s0.058 0.277 0.155 0.379c0.101 0.096 0.234 0.155 0.379 0.155s0.277-0.059 0.373-0.155c0.101-0.101 0.16-0.24 0.16-0.379 0-0.145-0.059-0.278-0.155-0.379-0.197-0.197-0.56-0.197-0.757 0z"></path>
    <path d="M4.267 28.8h-0.533c-0.295 0-0.533 0.238-0.533 0.533s0.238 0.533 0.533 0.533h0.533c0.295 0 0.533-0.238 0.533-0.533s-0.238-0.533-0.533-0.533z"></path>
    <path d="M1.6 29.867h0.533c0.295 0 0.533-0.238 0.533-0.533s-0.238-0.533-0.533-0.533h-0.533c-0.295 0-0.533 0.238-0.533 0.533s0.238 0.533 0.533 0.533z"></path>
    <path d="M8.533 28.8h-0.533c-0.295 0-0.533 0.238-0.533 0.533s0.238 0.533 0.533 0.533h0.533c0.295 0 0.533-0.238 0.533-0.533s-0.238-0.533-0.533-0.533z"></path>
    <path d="M6.4 28.8h-0.533c-0.295 0-0.533 0.238-0.533 0.533s0.238 0.533 0.533 0.533h0.533c0.295 0 0.533-0.238 0.533-0.533s-0.238-0.533-0.533-0.533z"></path>
    <path d="M12.8 28.8h-0.533c-0.295 0-0.533 0.238-0.533 0.533s0.238 0.533 0.533 0.533h0.533c0.295 0 0.533-0.238 0.533-0.533s-0.238-0.533-0.533-0.533z"></path>
    <path d="M10.667 28.8h-0.533c-0.295 0-0.533 0.238-0.533 0.533s0.238 0.533 0.533 0.533h0.533c0.295 0 0.533-0.238 0.533-0.533s-0.238-0.533-0.533-0.533z"></path>
    <path d="M17.067 28.8h-0.533c-0.295 0-0.533 0.238-0.533 0.533s0.238 0.533 0.533 0.533h0.533c0.295 0 0.533-0.238 0.533-0.533s-0.238-0.533-0.533-0.533z"></path>
    <path d="M14.933 28.8h-0.533c-0.295 0-0.533 0.238-0.533 0.533s0.238 0.533 0.533 0.533h0.533c0.295 0 0.533-0.238 0.533-0.533s-0.238-0.533-0.533-0.533z"></path>
    <path d="M19.2 28.8h-0.533c-0.295 0-0.533 0.238-0.533 0.533s0.238 0.533 0.533 0.533h0.533c0.295 0 0.533-0.238 0.533-0.533s-0.238-0.533-0.533-0.533z"></path>
</svg>