<svg version="1.1" viewBox="0 0 34 32"
    xmlns="http://www.w3.org/2000/svg"
    xmlns:xlink="http://www.w3.org/1999/xlink">
    <title>support</title>
    <path d="M28.925 12.106c0-6.702-5.393-12.106-12.052-12.106s-12.052 5.404-12.052 12.075c0 0 0 0 0 0.030-2.682 0.151-4.821 2.385-4.821 5.102v0.604c0 2.838 2.29 5.132 5.122 5.132h0.271l2.139 3.411c1.507 2.415 4.068 3.834 6.9 3.834h0.422c0.271 1.026 1.205 1.811 2.32 1.811 1.326 0 2.41-1.087 2.41-2.415s-1.085-2.415-2.41-2.415c-1.115 0-2.049 0.785-2.32 1.811h-0.422c-2.41 0-4.61-1.238-5.875-3.291l-1.748-2.747h0.422c0.663 0 1.205-0.543 1.205-1.208v-8.453c0-0.664-0.542-1.208-1.205-1.208h-1.205c0-6.008 4.851-10.868 10.847-10.868s10.847 4.86 10.847 10.868h-1.205c-0.663 0-1.205 0.543-1.205 1.208v8.453c0 0.664 0.542 1.208 1.205 1.208h2.109c2.832 0 5.122-2.294 5.122-5.132v-0.604c0-2.717-2.139-4.951-4.821-5.102zM17.174 28.377c0.663 0 1.205 0.543 1.205 1.208s-0.542 1.208-1.205 1.208c-0.663 0-1.205-0.543-1.205-1.208s0.542-1.208 1.205-1.208zM7.231 13.283v8.453h-2.109c-2.169 0-3.917-1.751-3.917-3.925v-0.604c0-2.174 1.748-3.925 3.917-3.925h2.109zM32.54 17.811c0 2.174-1.748 3.925-3.917 3.925h-2.109v-8.453h2.109c2.169 0 3.917 1.751 3.917 3.925v0.604z"></path>
    <path d="M21.874 4.559c-0.060-0.030-0.151-0.091-0.241-0.151s-0.181-0.121-0.241-0.151c-0.271-0.181-0.663-0.091-0.814 0.211s-0.090 0.634 0.211 0.815c0.060 0.030 0.151 0.091 0.241 0.151s0.181 0.121 0.271 0.151c0.090 0.060 0.211 0.091 0.301 0.091 0.211 0 0.392-0.091 0.512-0.302 0.151-0.272 0.060-0.634-0.241-0.815z"></path>
    <path d="M16.873 3.019c-2.561 0-4.971 1.117-6.629 3.049-0.211 0.242-0.181 0.634 0.060 0.845 0.121 0.091 0.241 0.151 0.392 0.151 0.181 0 0.331-0.060 0.452-0.211 1.446-1.66 3.525-2.626 5.725-2.626 0.542 0 1.085 0.060 1.627 0.181 0.331 0.060 0.633-0.151 0.723-0.453s-0.151-0.634-0.452-0.725c-0.633-0.151-1.265-0.211-1.898-0.211z"></path>
</svg>