                                            <svg class="slider-content__svg" xmlns="http://www.w3.org/2000/svg"
                                                xmlns:xlink="http://www.w3.org/1999/xlink" width="20px" height="20px"
                                                viewBox="0 0 20 20" version="1.1">
                                                <g id="surface1">
                                                    <path
                                                        style=" stroke:none;fill-rule:nonzero;fill:white;fill-opacity:1;"
                                                        d="M 11.550781 2.382812 C 11.414062 2.417969 11.269531 2.5 11.195312 2.585938 C 11.046875 2.765625 11.046875 2.75 11.046875 4.949219 C 11.046875 6.089844 11.035156 7.027344 11.019531 7.027344 C 11.007812 7.027344 10.738281 6.769531 10.425781 6.449219 C 10.109375 6.136719 9.796875 5.851562 9.730469 5.8125 C 9.523438 5.707031 9.183594 5.75 9.011719 5.910156 C 8.824219 6.074219 8.757812 6.4375 8.871094 6.667969 C 8.945312 6.8125 11.222656 9.105469 11.371094 9.179688 C 11.546875 9.269531 11.671875 9.289062 11.851562 9.246094 C 12 9.210938 12.082031 9.136719 13.230469 7.992188 C 13.902344 7.328125 14.46875 6.742188 14.492188 6.695312 C 14.609375 6.472656 14.582031 6.167969 14.421875 5.980469 C 14.234375 5.757812 13.886719 5.683594 13.632812 5.8125 C 13.570312 5.851562 13.253906 6.136719 12.941406 6.449219 C 12.628906 6.769531 12.359375 7.027344 12.347656 7.027344 C 12.328125 7.027344 12.320312 6.089844 12.320312 4.949219 C 12.320312 2.738281 12.320312 2.746094 12.164062 2.570312 C 12.035156 2.429688 11.738281 2.335938 11.550781 2.382812 Z M 11.550781 2.382812 " />
                                                    <path
                                                        style=" stroke:none;fill-rule:nonzero;fill:white;fill-opacity:1;"
                                                        d="M 2.71875 2.75 C 2.566406 2.792969 2.363281 3.007812 2.320312 3.175781 C 2.238281 3.476562 2.371094 3.796875 2.636719 3.929688 C 2.789062 4 2.824219 4.003906 3.761719 4.011719 L 4.730469 4.023438 L 4.847656 4.488281 C 4.914062 4.742188 5.027344 5.164062 5.09375 5.425781 C 5.164062 5.6875 5.339844 6.347656 5.484375 6.894531 C 5.628906 7.445312 5.871094 8.339844 6.011719 8.890625 C 6.363281 10.207031 6.519531 10.789062 6.632812 11.226562 C 6.6875 11.421875 6.765625 11.730469 6.8125 11.910156 C 7 12.628906 7.050781 12.769531 7.171875 12.882812 C 7.238281 12.941406 7.335938 13.007812 7.394531 13.03125 C 7.472656 13.054688 8.519531 13.070312 11.472656 13.070312 L 15.445312 13.070312 L 15.613281 12.988281 C 15.878906 12.855469 15.871094 12.878906 16.4375 10.996094 C 16.46875 10.890625 16.5625 10.589844 16.644531 10.328125 C 16.726562 10.066406 16.917969 9.433594 17.074219 8.921875 C 17.230469 8.410156 17.441406 7.726562 17.539062 7.402344 C 17.742188 6.738281 17.75 6.59375 17.597656 6.367188 C 17.476562 6.183594 17.214844 6.066406 17.003906 6.097656 C 16.808594 6.125 16.746094 6.15625 16.609375 6.285156 C 16.480469 6.40625 16.582031 6.09375 15.171875 10.71875 C 15 11.285156 14.851562 11.753906 14.851562 11.761719 C 14.84375 11.769531 13.4375 11.769531 11.726562 11.769531 C 10.011719 11.765625 8.5 11.765625 8.367188 11.765625 L 8.121094 11.765625 L 7.996094 11.3125 C 7.871094 10.855469 7.550781 9.644531 7.191406 8.269531 C 7.078125 7.847656 6.949219 7.347656 6.894531 7.15625 C 6.84375 6.96875 6.730469 6.53125 6.636719 6.191406 C 6.550781 5.851562 6.339844 5.066406 6.175781 4.445312 C 6.011719 3.824219 5.863281 3.261719 5.847656 3.191406 C 5.804688 3.035156 5.640625 2.851562 5.472656 2.773438 C 5.351562 2.71875 5.234375 2.710938 4.085938 2.714844 C 3.390625 2.714844 2.777344 2.730469 2.71875 2.75 Z M 2.71875 2.75 " />
                                                    <path
                                                        style=" stroke:none;fill-rule:nonzero;fill:white;fill-opacity:1;"
                                                        d="M 8.269531 13.675781 C 7.574219 13.804688 6.984375 14.324219 6.746094 15.015625 C 6.667969 15.238281 6.652344 15.328125 6.652344 15.636719 C 6.652344 15.945312 6.667969 16.035156 6.742188 16.257812 C 6.960938 16.898438 7.5 17.402344 8.140625 17.570312 C 8.386719 17.632812 8.839844 17.640625 9.089844 17.582031 C 9.421875 17.507812 9.800781 17.292969 10.050781 17.042969 C 10.632812 16.457031 10.800781 15.621094 10.480469 14.851562 C 10.128906 14.011719 9.191406 13.511719 8.269531 13.675781 Z M 8.957031 15.023438 C 9.070312 15.085938 9.167969 15.164062 9.230469 15.253906 C 9.320312 15.382812 9.328125 15.425781 9.328125 15.636719 C 9.328125 15.851562 9.320312 15.890625 9.230469 16.019531 C 9.089844 16.226562 8.832031 16.351562 8.589844 16.328125 C 7.988281 16.277344 7.726562 15.570312 8.152344 15.148438 C 8.382812 14.914062 8.660156 14.871094 8.957031 15.023438 Z M 8.957031 15.023438 " />
                                                    <path
                                                        style=" stroke:none;fill-rule:nonzero;fill:white;fill-opacity:1;"
                                                        d="M 14.230469 13.648438 C 14.195312 13.652344 14.085938 13.675781 13.988281 13.695312 C 12.773438 13.941406 12.097656 15.328125 12.628906 16.480469 C 12.871094 17.011719 13.410156 17.445312 13.988281 17.582031 C 14.234375 17.640625 14.679688 17.632812 14.933594 17.566406 C 15.652344 17.378906 16.230469 16.78125 16.390625 16.054688 C 16.496094 15.582031 16.410156 15.050781 16.160156 14.621094 C 15.910156 14.195312 15.410156 13.824219 14.917969 13.699219 C 14.769531 13.660156 14.328125 13.628906 14.230469 13.648438 Z M 14.648438 14.96875 C 14.921875 15.046875 15.128906 15.328125 15.128906 15.628906 C 15.128906 16.308594 14.273438 16.589844 13.871094 16.046875 C 13.472656 15.503906 13.988281 14.789062 14.648438 14.96875 Z M 14.648438 14.96875 " />
                                                </g>
                                            </svg>