<svg version="1.1" viewBox="0 0 32 32"
    xmlns="http://www.w3.org/2000/svg"
    xmlns:xlink="http://www.w3.org/1999/xlink">
    <title>toCart</title>
    <path fill="#fff" style="fill: var(--color3, #fff)" d="M31.823 13.097c-5.148 10.903-6.823 10.903-7.823 10.903h-9.846c-3.449 0-6.091-2.028-6.732-5.169-0.020-0.096-1.969-9.665-2.468-12.338-0.245-1.311-0.868-2.185-3.108-2.185-1.020 0-1.846-0.826-1.846-1.846s0.826-1.846 1.846-1.846c3.717 0 6.11 1.846 6.737 5.199 0.494 2.645 2.437 12.182 2.457 12.279 0.393 1.927 2.119 2.215 3.114 2.215h9.36c1.006-1.081 3.297-5.244 4.97-8.789 0.436-0.922 1.537-1.314 2.458-0.881 0.923 0.434 1.317 1.535 0.881 2.458zM12.923 25.231c-1.7 0-3.077 1.377-3.077 3.077s1.377 3.077 3.077 3.077c1.7 0 3.077-1.377 3.077-3.077s-1.377-3.077-3.077-3.077zM24 25.231c-1.7 0-3.077 1.377-3.077 3.077s1.377 3.077 3.077 3.077c1.7 0 3.077-1.377 3.077-3.077s-1.377-3.077-3.077-3.077zM18.047 15.193c0.123 0.1 0.274 0.148 0.426 0.148s0.3-0.048 0.426-0.148c0.123-0.097 3.481-3.372 5.312-6.097 0.142-0.212 0.155-0.482 0.034-0.706-0.117-0.223-0.351-0.363-0.603-0.363h-2.74c0 0-0.267-5.281-0.442-5.526-0.254-0.362-1.301-0.608-1.989-0.608-0.69 0-1.756 0.246-2.011 0.608-0.174 0.244-0.404 5.526-0.404 5.526h-2.775c-0.254 0-0.486 0.14-0.606 0.363-0.119 0.224-0.106 0.496 0.034 0.706 1.833 2.726 5.215 6 5.337 6.097z"></path>
</svg>