<svg version="1.1" viewBox="0 0 46 32"
    xmlns="http://www.w3.org/2000/svg"
    xmlns:xlink="http://www.w3.org/1999/xlink">
    <title>youtube</title>
    <path d="M43.429 2.857c-1.631-1.935-4.643-2.724-10.395-2.724h-20.879c-5.883 0-8.946 0.84-10.571 2.9-1.584 2.008-1.584 4.968-1.584 9.063v7.806c0 7.935 1.88 11.963 12.156 11.963h20.879c4.988 0 7.752-0.696 9.54-2.404 1.834-1.751 2.616-4.61 2.616-9.559v-7.806c0-4.319-0.123-7.296-1.761-9.239zM29.013 17.078l-9.481 4.944c-0.212 0.111-0.444 0.165-0.675 0.165-0.262 0-0.524-0.070-0.755-0.21-0.436-0.264-0.703-0.735-0.703-1.244v-9.857c0-0.508 0.266-0.979 0.701-1.243s0.977-0.282 1.429-0.048l9.481 4.912c0.482 0.25 0.785 0.747 0.786 1.289s-0.301 1.040-0.783 1.291z"></path>
</svg>