<?xml version="1.0" encoding="UTF-8"?>
<svg width="102px" height="32px" viewBox="0 0 102 32" version="1.1" xmlns="http://www.w3.org/2000/svg" xmlns:xlink="http://www.w3.org/1999/xlink">
    <!-- Generator: Sketch 44.1 (41455) - http://www.bohemiancoding.com/sketch -->
    <title>Group</title>
    <desc>Created with Sketch.</desc>
    <defs>
        <linearGradient x1="-3.67666142%" y1="-13.6094872%" x2="7.12066142%" y2="48.5092308%" id="linearGradient-1">
            <stop stop-color="#6E6E6E" offset="0%"></stop>
            <stop stop-color="#2C2927" offset="100%"></stop>
        </linearGradient>
        <linearGradient x1="-3.67666142%" y1="-13.8441282%" x2="7.12066142%" y2="49.3456154%" id="linearGradient-2">
            <stop stop-color="#6E6E6E" offset="0%"></stop>
            <stop stop-color="#2C2927" offset="100%"></stop>
        </linearGradient>
        <linearGradient x1="-1.24744094%" y1="-13.2575128%" x2="2.41592913%" y2="47.2547949%" id="linearGradient-3">
            <stop stop-color="#6E6E6E" offset="0%"></stop>
            <stop stop-color="#2C2927" offset="100%"></stop>
        </linearGradient>
        <linearGradient x1="-1.93681102%" y1="-23.1126667%" x2="3.75105512%" y2="82.3822051%" id="linearGradient-4">
            <stop stop-color="#6E6E6E" offset="0%"></stop>
            <stop stop-color="#2C2927" offset="100%"></stop>
        </linearGradient>
        <linearGradient x1="-3.70948819%" y1="-23.9339231%" x2="7.1842126%" y2="85.3094103%" id="linearGradient-5">
            <stop stop-color="#6E6E6E" offset="0%"></stop>
            <stop stop-color="#2C2927" offset="100%"></stop>
        </linearGradient>
    </defs>
    <g id="2v" stroke="none" stroke-width="1" fill="none" fill-rule="evenodd">
        <g id="JoinUP!-to-travel-2" transform="translate(-21.000000, -59.000000)" fill-rule="nonzero">
            <g id="Шапка" transform="translate(0.000000, -9.000000)">
                <g id="Logo" transform="translate(21.000000, 68.000000)">
                    <g id="Group">
                        <g id="Shape" transform="translate(54.132616, 6.493543)" fill="#EB6924">
                            <g id="path5_fill-link" transform="translate(0.098589, 0.125812)">
                                <path d="M12.7612454,1.10151601 L12.350624,1.20641921 L12.4019216,14.8442404 C12.4019216,14.8442404 12.6072724,19.4076592 9.68194532,19.4076592 C5.93547156,19.4076592 6.03811489,14.9491111 6.03811489,14.9491111 L6.03811489,7.34342656 L6.03811489,2.20303203 C6.03811489,2.20303203 2.34297883,2.62265292 2.18901382,2.62265292 C2.08637049,2.62265292 0.957301803,2.72755612 0.0335159435,2.78000772 C0.0335159435,2.78000772 -0.0691266715,11.9593214 0.0848374514,15.8932723 C0.187479986,18.725756 1.82976215,22.397449 4.29318619,23.6563036 C6.50000189,24.757852 8.24497067,25.1774973 10.5544057,24.9676747 C12.2480287,24.8102874 14.044247,23.8136908 15.0193828,23.1317876 C18.5605218,20.6140784 18.5092242,15.8932723 18.5092242,15.8932723 L18.5092242,0 C18.0986027,0.104906442 15.3272487,0.576983806 14.8654098,0.681889436 C13.6850034,0.891701507 12.7612454,1.10151601 12.7612454,1.10151601 Z" id="path5_fill"></path>
                            </g>
                        </g>
                        <g id="Shape" transform="translate(74.541858, 4.276403)" fill="#D06520">
                            <g id="path6_fill-link" transform="translate(0.016031, 0.092128)">
                                <path d="M18.2880833,5.3392106 C17.5174968,1.67259881 12.7913828,-0.632131847 7.91112735,0.153570679 L0.359597135,1.62022027 C0.359597135,1.62022027 0.719193468,5.3392106 0.821932186,13.5629019 C0.719193468,22.8865752 0.565080983,22.7817856 0,26.2913023 L0.410967696,26.2913023 L0.410967696,26.3436565 L1.23290629,26.3436565 L1.43838533,26.3436565 L5.90765863,26.2913023 L7.85975759,26.3436565 C7.44879149,24.8770086 7.14056492,22.834221 6.98645564,20.6866438 L6.98645564,20.4770647 L7.0378254,20.4770647 C6.98645564,19.5342022 6.93508588,18.5389855 6.88370811,17.4390604 L6.78096859,7.90584048 C12.740005,5.86301229 14.0756668,8.79631633 13.9729113,10.7343956 C13.818778,14.4009749 10.3769479,15.919977 7.96250512,15.919977 C8.42483296,15.919977 8.37345518,15.9724124 8.835775,15.9724124 C13.4078359,15.9724124 16.2845905,14.9247603 17.8257635,11.4676789 C18.5962698,9.8963226 18.9559142,8.69152677 18.2880833,5.3392106 Z" id="path6_fill"></path>
                            </g>
                        </g>
                        <g id="Shape" transform="translate(74.541858, 4.276403)" fill="#EB6924">
                            <g id="path6_fill-link" transform="translate(0.016031, 0.092128)">
                                <path d="M18.2880833,5.3392106 C17.5174968,1.67259881 12.7913828,-0.632131847 7.91112735,0.153570679 L0.359597135,1.62022027 C0.359597135,1.62022027 0.719193468,5.3392106 0.821932186,13.5629019 C0.719193468,22.8865752 0.565080983,22.7817856 0,26.2913023 L0.410967696,26.2913023 L0.410967696,26.3436565 L1.23290629,26.3436565 L1.43838533,26.3436565 L5.90765863,26.2913023 L7.85975759,26.3436565 C7.44879149,24.8770086 7.14056492,22.834221 6.98645564,20.6866438 L6.98645564,20.4770647 L7.0378254,20.4770647 C6.98645564,19.5342022 6.93508588,18.5389855 6.88370811,17.4390604 L6.78096859,7.90584048 C12.740005,5.86301229 14.0756668,8.79631633 13.9729113,10.7343956 C13.818778,14.4009749 10.3769479,15.919977 7.96250512,15.919977 C8.42483296,15.919977 8.37345518,15.9724124 8.835775,15.9724124 C13.4078359,15.9724124 16.2845905,14.9247603 17.8257635,11.4676789 C18.5962698,9.8963226 18.9559142,8.69152677 18.2880833,5.3392106 Z" id="path6_fill"></path>
                            </g>
                        </g>
                        <g id="Shape" transform="translate(66.526604, 6.493543)" fill="#F4C20C">
                            <g id="path7_fill-link" transform="translate(0.136259, 0.125812)">
                                <path d="M2.61865546,0.62407823 C1.33500459,0.884112178 0.410769719,1.09213284 0.410769719,1.09213284 L0,1.19615129 L0.0513461949,7.28090997 C1.95115316,5.51269373 4.41577148,3.48443543 6.21289551,1.14414613 L6.21289551,0 C5.80212178,0.0520065462 3.02942918,0.520065462 2.61865546,0.62407823 Z" id="path7_fill"></path>
                            </g>
                        </g>
                        <g id="Shape" transform="translate(54.132616, 8.719013)" fill="#F4C20C">
                            <g id="path8_fill-link" transform="translate(0.098589, 0.018049)">
                                <path d="M6.08345718,5.11067846 L6.08345718,0 C6.08345718,0 2.36057231,0.417197993 2.20545311,0.417197993 C2.10204031,0.417197993 0.964491484,0.5214981 0.0337677018,0.573647748 C0.0337677018,0.573647748 -0.0696458203,9.69989291 0.0854746632,13.6111165 L0.0854746632,13.7675297 C1.63667469,12.9853012 3.70494673,11.8379733 6.03175078,10.2213244 L6.08345718,5.11067846 Z" id="path8_fill"></path>
                            </g>
                        </g>
                        <g id="Shape" transform="translate(57.338717, 23.974972)" fill="#DB3424">
                            <g id="path9_fill-link" transform="translate(0.002406, 0.118509)">
                                <path d="M0,5.22080084 C0.359977859,5.53404126 0.771381585,5.8472898 1.18278691,6.05612215 C3.39408314,7.15249204 5.14254657,7.57015675 7.45669453,7.36132439 C9.15374011,7.20470012 10.9536454,6.21274642 11.9307048,5.53404126 C14.1420331,3.96780669 14.9647989,1.56624269 15.2733862,0 C10.5936804,2.61039636 5.45110177,4.4376795 0,5.22080084 Z" id="path9_fill"></path>
                            </g>
                        </g>
                        <g id="Shape" transform="translate(74.541858, 17.263490)" fill="#DB3424">
                            <g id="path10_fill-link" transform="translate(0.016031, 0.078329)">
                                <path d="M7.01826818,7.57307885 C6.96666598,6.63297609 6.91505576,5.64064089 6.91505576,4.54384893 L6.86345356,0 C5.0056781,1.82798119 2.94147781,3.49928129 0.774073909,5.01390031 C0.670863894,10.0278169 0.516049272,10.4978682 0,13.3181765 L0.412839258,13.3181765 L0.412839258,13.3703684 L1.23851697,13.3703684 L1.44493379,13.3703684 L5.93456583,13.3181765 L7.89555371,13.3703684 C7.48271205,11.9080224 7.1730828,9.87107895 7.01826818,7.72976805 L7.01826818,7.57307885 Z" id="path10_fill"></path>
                            </g>
                        </g>
                        <g id="Shape" transform="translate(82.557111, 5.681851)" fill="#DB3424">
                            <g id="path11_fill-link" transform="translate(0.024046, 0.142858)">
                                <path d="M7.21861746,0 C6.14349944,2.09917592 4.96599458,4.0933837 3.58370801,6.03512366 C5.52915431,6.50743154 6.0411126,8.18673494 5.98991917,9.44623887 C5.83633088,13.1197987 2.40620315,14.641723 0,14.641723 C0.460762458,14.641723 0.40956663,14.6942395 0.870328286,14.6942395 C5.42675945,14.6942395 8.29370341,13.6446394 9.82958629,10.1809833 C10.5463103,8.5016718 10.9558897,7.29462759 10.2391657,3.98842369 C9.88080376,2.30908783 8.75450033,0.944623887 7.21861746,0 Z" id="path11_fill"></path>
                            </g>
                        </g>
                        <g id="Shape" transform="translate(38.102109, 15.264289)" fill="#000000">
                            <g id="path12_fill-link" transform="translate(0.082559, 0.092130)">
                                <path d="M14.4967882,15.2516291 L9.87014347,15.2516291 L9.87014347,7.88697674 C9.87014347,7.26020369 9.81868554,6.68565496 9.76730777,6.11110623 C9.71592999,5.53655751 9.61309429,5.06647366 9.45888081,4.80531146 C9.30466733,4.49192493 9.04761815,4.23076273 8.68773327,4.07406541 C8.37930632,3.91737621 7.91666589,3.86514377 7.29977991,3.86514377 C6.88852527,3.86514377 6.47727063,3.91737621 6.01460615,4.07406541 C5.60335151,4.23076273 5.14068703,4.43969249 4.62662073,4.75307902 L4.62662073,15.356094 L0,15.356094 L0,0.365621401 L4.62662073,0.365621401 L4.62662073,2.03703271 C5.44913002,1.3580191 6.22023748,0.887935252 6.99133693,0.522316287 C7.76244439,0.156694886 8.58497772,0 9.51025859,0 C11.0524735,0 12.2862615,0.470084658 13.1601646,1.41025154 C14.0340677,2.35042735 14.4453303,3.76067889 14.4453303,5.64102239 L14.4453303,15.2516291 L14.4967882,15.2516291 Z" id="path12_fill"></path>
                            </g>
                        </g>
                        <g id="Shape" transform="translate(15.395515, 15.264289)" fill="#000000">
                            <g id="path13_fill-link" transform="translate(0.009802, 0.092130)">
                                <path d="M11.5694574,1.55161598 C8.34780637,-1.01476227 3.84777855,-0.333887454 1.44434868,3.12286681 C-0.959081188,6.57962351 -0.294300872,11.5029064 2.92731485,14.069236 C6.14893379,16.6356467 10.6489857,15.9547175 13.0523594,12.498042 C15.4558133,9.04128526 14.7910282,4.17036466 11.5694574,1.55161598 Z M7.37629352,11.6076148 C5.63764077,11.6076148 4.71717707,9.93163124 4.71717707,7.83662743 C4.71717707,5.74162361 5.63764077,4.0656238 7.37629352,4.0656238 C9.11494628,4.0656238 10.035418,5.74162361 10.035418,7.83662743 C10.035418,9.87927705 9.11494628,11.6076148 7.37629352,11.6076148 Z" id="path13_fill"></path>
                            </g>
                        </g>
                        <g id="Rectangle-path" transform="translate(31.259489, 15.588372)" fill="#000000">
                            <g id="path14_fill-link" transform="translate(0.064122, 0.032658)">
                                <polygon id="path14_fill" points="0 0 4.91853627 0 4.91853627 14.9589326 0 14.9589326"></polygon>
                            </g>
                        </g>
                        <g id="Shape" transform="translate(31.259489, 10.176193)" fill="#000000">
                            <g id="path15_fill-link" transform="translate(0.064122, 0.149353)">
                                <path d="M0,0 L0,3.70664449 L4.78910595,3.70664449 L4.78910595,0.469856572 C3.10782638,0.939713144 1.01895513,0.208825053 0,0 Z" id="path15_fill"></path>
                            </g>
                        </g>
                        <g id="Shape" transform="translate(93.622567, 0.000000)" fill="#000000">
                            <g id="path16_fill-link" transform="translate(0.091777, 0.000000)">
                                <path d="M4.6132032,25.4497391 L5.43332394,25.4497391 C5.58709658,20.6782834 5.99715695,15.2251679 6.25344468,12.5511267 C7.38111871,2.01200821 7.63667705,0 7.63667705,0 C7.63667705,0 5.53583903,1.59254154 2.15282495,2.27417691 C1.28144667,2.43147489 0,2.69364359 0,2.69364359 C1.12767403,13.1802699 1.48647685,20.6782834 1.38396176,26.0788823 C1.69150704,26.0788823 3.33175653,25.5021745 4.6132032,25.4497391 Z" id="path16_fill"></path>
                            </g>
                        </g>
                        <g id="Shape" transform="translate(94.746524, 27.003806)" fill="#000000">
                            <g id="path17_fill-link" transform="translate(0.001787, 0.134336)">
                                <path d="M4.53023731,3.39043327 L0,3.44188649 L0.254507543,0.457393839 C0.254507543,0.457393839 1.47614519,0.148652633 2.4432737,0.0457393844 C3.56310881,-0.0571741887 4.32662583,0.0457393844 4.32662583,0.0457393844 L4.53023731,3.39043327 Z" id="path17_fill"></path>
                            </g>
                        </g>
                        <g id="Shape" transform="translate(0.000000, 4.494342)" fill="#000000">
                            <g id="path18_fill-link" transform="translate(0.000000, 0.138801)">
                                <path d="M14.1698461,21.2763387 C14.1698461,21.1195196 14.2211437,21.0149736 14.2211437,20.8581545 C14.2211437,20.7536085 14.2211437,20.4922433 14.2725215,20.126251 C14.3238191,19.3944286 14.3751969,18.2442598 14.4264945,17.041899 C14.4778723,15.9963573 14.5291699,14.0098201 14.5805476,11.0822871 C14.683223,8.36384634 14.5805476,6.74327704 14.5805476,3.2929733 C14.5805476,3.24069216 14.3238191,3.34524633 13.7591445,3.08385685 C10.6787222,2.14286935 7.59831605,1.09731956 6.77687279,0.0517744832 C6.16079636,-0.784662748 7.23893613,8.72983868 7.70099144,12.9642784 C8.111677,16.7282609 7.95769597,15.7349922 8.111677,18.0351677 L8.111677,18.2442598 L8.111677,18.7670712 C8.111677,19.1852554 8.111677,19.4989747 8.06037938,19.7603398 C8.06037938,19.7603398 8.16305478,22.6355997 5.0313189,23.5765953 C3.08039818,24.2038716 1.33483627,23.5243223 0,22.3219615 C1.33483627,24.622137 2.31030064,26.3473092 5.33935311,26.8700394 C7.08491501,27.1836776 8.57375637,26.9223124 9.85723891,26.3995822 C12.9890389,24.9880482 13.9131175,22.6878727 14.1698461,21.2763387 Z" id="path18_fill"></path>
                            </g>
                        </g>
                    </g>
                </g>
            </g>
        </g>
    </g>
</svg>